<svg xmlns="http://www.w3.org/2000/svg" viewBox="0 0 263.42 163.91"><defs><style>.cls-1{fill:#fe7901;}</style></defs><title>충청도</title><g id="Layer_2" data-name="Layer 2"><g id="Layer_1-2" data-name="Layer 1"><path id="KR-30" class="cls-1" d="M135.79,103.62l.34.18h0l.54-.09,1.07-2.5h0l.67-.71h0l1.52.19-.35,1.44h0l-.08.7h0v.28l3.14-2.91h0l2.74,2.74h0l.26,2.88.72.81,1.95.46-.35,1.78.84.23,1.37,2.4-1.37.34-1.71,1.72h0l-1,6.16h0l-1.37,6.85,1.29,4.11h0l-3.69,2.4-2.39,3.08-4.11-2.4-2.4-4.11V127.6l-.69-1.71H131l.34,3.42-.68,5.48-1,2.4h-1.37l-1-3.43-2.74-1-1.71-2.39-.34-3.77-2.4-2-.34-4.46,2.4-2.74-.35-9.59h0l2.77-.64h0l1,0,3.77-1.72,1-3.08.36-3.61-.34,0h0l-.25-.35,4.34-.46Z"/><path id="KR-43" class="cls-1" d="M159.77,154l-1-3.07L157,147.46l-2.39-2.05-.35-3.08h0l1.37-3.09-.34-3.42-2-3.43h0l-3.08.3-1.13-.94-3.21-1.18-1.15-4,1.37-6.85h0l1-6.16h0l1.71-1.72,1.37-.34-1.37-2.4-.84-.23.34-1.78-1.94-.46-.72-.81-.26-2.88h0l-2.74-2.74h0l-3.14,2.91v-.28h0l.08-.7h0l.35-1.44-1.52-.19h0l-.67.71h0l-1.07,2.5-.54.09h0l-.34-.18h0l-1.36-5.82-4.34.46-.43-.6-.78-.16-.43.36h0l-.64.86h0l2.05-6.7-1.19-1.25.91-2,.1-1.6L126,87l-.5-1.48h0V82.39l-3.08-3.77,2.4-.69.34-3.08h0l-1.71-2.4L129,63.89l4.11.34,1.71-2.05-1.37-4.11L130,55.67h-3.16l-1.18-.53L125.8,53h0l-.06-.47-.58-.07h0l-1.63-.78h0l-.25-2.92-3.12-2.1-1-2.66,3-.25h0l1.67-1h0l1.71-.39h0l.77-.48h0l1.87-1.36,2.43.15,1-1.49,1-.43.19-2.31-.33-1.19h0l2.18-1.76h0l3.4-1.55-.2-.49,1-1.25.06-1.14,2.57-2.82.88,1.3,1.62,0-.29,2.27,1.75-3.54,4.72.86L154.64,23l2.74-.34.68-8.57h1.71l1.72,2.06h2l2.92-7.3,2.91-.64.68,3.83,4.45,3.42,2.4-1,1.59-2.06,3.33-.1,2.11,1.18,1.18-.32.48-1,2.25-.88.46-2L187.51,7l-.3-3,.51-1.1,2.61-1.85h0l1.64-1L194.41,0h0l2.24.57h0l2,3.63h0l-.07,3.7.37.52h0l1,.36h0l2.24-.9h0l2.34-.4h0l2.29-1.43,1.74-1.95,3.27,1.1.74-.1.74-1.67,1.23-1,2.69-.65,2.18,1.66,2.33.48,1.62,1.9,1.88.25h0l1.15-.29h0l1.5-.91h1.07l.64.58-.12,1.5-2.58,3h0l-1.92.84h0l-1.66,1.38L224,14h0L226.53,16l.76-.52h0l.56-.57,1.6-.15h0l1.31-1.38,1-.05h0l2.65.2,1.6-.35L237,14h0l-.1.73h0v2.14h0l.51.31h0l1.26.59h0l.2.91h0l.9,1.53.83-.13.34-.66.9.28,3.61-.64h0l1-.46h0l.38-.48,1.83.58,2.16,2.41,1.78.78h0L257,23.32l1.49.05h0l2.34-.29h0l.71.87h0l1.9,1.48L262,26.84h0l-1,1-.52-.25h0l-1-.36h0l-.82.34h0l-1.59,2.35-.91.52h0l-.68.31h0l-3.61,3.56-3.07.89h0l-.87,1.37h0l-.51,1.09L244,39.54l-.1,1-1.63,1.62-1.74,3.63h0l-.91,1.72h0L239.59,49l1.45.67h0l.58.89h0l.29,2.3-3.12,4.28h0l-1.57.33h0l-2.32.17h0l-.5.36h0l-1,1.13L230.71,59h0l-1.81.48-.6-.28h0l-1.14-3.07-1.6-2.33-3.55-2-1.3-2.17h0L219.52,51l-.3,1.12h0l-.34.83-1.24.38-.27,2.84h0l-.22.71h0l-.4.62L211,56.09l-.54-.48h0l-.46-.69h0l-1.17-.42-.67.69h0l-1.52,1.26h0l-1.27,2.13h0l-1.51.21h0l-1.8-1.92-.55.34-3,7h0l-.17.38h0L202,69.44l.17.87-1.31.11-3.74-1.11h0l-1.3-.73-1.32.64h0L192,68.11h0l-1.23-.68h0L189.52,70l-1.87,1.53-1.76,1.15-2.2.13h0l-.71.28h0l-1.84,2.61.53,2.44h0l-.49.77h0L178.75,81h0l-.63.8h0l-1,1.66-.89.05h0l-1.72.38h0l-.9,1.1-.18,1,.8,1.2,5.89,1.24,1.33,1.34-.15,1h0l.42,1.71.64.45h0l1.8.74.4.75-.46,1.87h0l-.14.62h0l-2.08.36h0l-.47,1.47h0l.32,4-.73,3,.65,1.3v1.42l-1.41,2.21,1.45,3.58h0l.54.33h0l-1.1,2.82-2.92,2.53h0l-.08,4.71.41.86,2,1.09h0l2-1.18,1.28-1.65.44,0,.51,1.58,2.46.88.29.75h0l.1.54h0l1.08.36h0l.85.82h0l.37.55.92-.11h0l2.18-.92h0l2.45-.87,2.22.77h0l.68,1.17h0l-.39,1.17.55,2.31h0l.63,1.44.76.62h0l-.1.87-1.27.61-2.71-1.63-2.65,1.57-.72.94-.57,1,.09,1.31,1.2,1.94-.56,1.55.11,2.37-1.93,1.61.2,1-1.09,1.84-.25,2.24-2,2.85-.83.36-1-.73-1.37.26-4.19,4-2.2-2.44-1-.06h0l-1.51.49h0l-3,1.77h0l-1,.37h0l-.39,1h-2.86l-.17-1h0l-1.87-1.14h0l-1.29-.32h0l-2.48-.62h0l-.73-.62h0l-1.15-2.49Z"/><path id="KR-44" class="cls-1" d="M26.06,114.1l-.12,1-1.44-.67-.52.74-.26-1.53,1.18-.82,0-1.46h.72l.23,1.86,1,.78Zm8-5.24-.81.85,1.27.64,1.73.18-.17,1-1.56-.14-.2-.67-1.82-.5-1.78,0-.44-.64-1.32.46-.72-.28,0-1.18.8-.6,1.59.53,1.18,1L31.18,108l1-.5h0l1.13.11.17,1.14ZM27.73,90.52l.28.36,1.27,0,.9,1,.23,1.21-.58.39,0,.61L31,93.73l-.17,2,.95,1.57L30.7,98.87l.86.22.78,1.57.95.14-.23,1.07.52,1.28-1.41,1.11.63,1.5-.92.14.23-.5-.38-.5-.55.32L31,103.94H29.68l.41-.82-2.11,0-.05.64-1,.57-.55-.67-.46.07-.14-1.11-.75,0,.6-2.07-2.19.21-.49-.64.26-.71-.4-1.07.83-1.89-1.5.42.12-.53L23,96l.31-2.32,0-.72-.67-.32.32-1-.58-.21.35-5.71-1.59-2L20.86,82l1-.93.06-.89L25,77.87h0l.46-.18,1,.86-.06,1.25.87.68L27,81.3l.47.11-.06,1.25-1.5.5-.17.58,1.61.75.38,1.93-.26,1.64,1.12,1.5-.12.64Zm7.43-67.86L32.08,23l.32-1.08-.67-1.19.29-.79h0l2.59.43.58.9Zm5-2.81,2.22.79h0L44,23.12l2.42.4L53.93,28l1.76.43,5.21-.18.41.86,8.24,2.23.32.47-.41,1,1.73,2.94-.34.47.46.86.4.61.32-.36.52.18.57,3.7,1,1.18,0,.61,3.92.72L80,42.88,83,42.57l1.08-.06L85,41.18l1.8-.89,8.29,1.94.92-.68h1l3.47-1.28L103.85,38l2.83-.09L110,39.48l1.47,2,2.14,1.74,5.59.77,1,2.66,3.12,2.1.25,2.92,1.63.78.58.07.07.47-.18,2.18,1.18.53H130l3.42,2.4,1.37,4.11-1.71,2.05L129,63.89l-5.48,8.56-2.68.23-2.82-1-3-1.77-1.63-1.78-2.81-.89-3,1.18-.45,1.93,1.19,2.22.59,2.22.3,3.4-.74,2.67.29,3.7.15,3.84v3.41l-1.18,2.66.15,2.22L110,99.46l3,1.63,1.48,4.29.29,3.11-.15,4.43,1.34,3.41,1.92,1.48,1.87,2.26.35,4.45,2.39,2,.35,3.77,1.71,2.4,2.74,1,1,3.42h1.37l1-2.4.69-5.48-.34-3.42h1.71l.68,1.71v2.06l2.4,4.11,4.11,2.4,2.4-3.09,3.68-2.39,3.07,1.07,1.14.93,3.07-.29,2,3.42.35,3.43-1.37,3.08.34,3.08,2.4,2.06,1.71,3.42,1,3.08-.34.36v2.73l-3.08,3.08-1.71-1.37-2.79-1.32-2.08,1.1-1.12.2-.18,2.42-1,2.05-3.42.69-3.77-.34-.68-3.09-.08-2.4-.67-.17-3.36,1.89h-1.37L132,155l-.38-3-3.25-5.61-1.25-1.78-2.65,2.21-4.8-.34.69,2.74-5.82.34-1.9-1.9-1.23-.18-2.08,1.27-2.53.25-1.62.79-2.8-.2-.56-.89,0-1.33-2.68-.21L98.81,143l-2.41-2.2-1.39.41-4.13-2.49-4-.73-3,2.2-2.2.74v9.26L73.81,154,69,155.69l-1.62-1.49-1.44.61-.75-.36-.34,1.13-1.19,1.24L59,155.66l-1.24.67-.81-.82.46-1.17-.52-1.17.75-.07.09-.46-2.48-2.84-1.15.11-.32-3.09-1.15.21.75-1.13.8.46,1.21-.89-.08-.57-1.3.35,0-.92-1.16-.53-.89.78-1.47-3.23-2.8-2.42-1.52,1.53-.15-1-.86-1-2.88-1-1.3.35-.32,2.63-1.18-1.07,0-3,.89.5,1.7-.25.84-1.07-.2-2.45L44,131.29l.43,0-1-4.94.72-.85.35-1.92.77-.15.06-.53-.63-1.07-.81-.32.55-.35-1.3-2.46-1,.14L41.65,117l-1.35-1.74.49-.57.92.46.69-.89,2.45-.86.32-.74,1-.61,2.85.25-3.57-.75L40.27,108l-2,0,.46-3.53,1-2.11,1.09-.25,1.53-1.57h1.38l.72-1.32.75.11.21-.43L47.1,99l.75-3,1.38.78,1.59-.28,1.09-1.36-2.45.86-1.58-1-.55.53-.55-.64-.11.82-2.31,1.5L44,98.41l-.87.08L42.8,100l-2.88,1.46.29-1.32-1.35-1.42.11-2-.72-1.1.26-3.75.78-.29.29-1.07,1.15-1,2.36.89,1.42,1.68.83-.11-1.81-1.71L41.6,89.6l-.81-.83-1.64,1.4-.26-1.11L36.55,87l.72-1.86-.8-3.32-1.1-1.32L31.57,79l-.61-1-4-.64-.75-.72-2.56,1.54-1.73,1.68-.64,1.72-.66-.64-1.73,2-.23-1L17.79,81l.72-1.15-.12-2.07L19.54,77l-.14-3.47-1.18-2.54-.61-.47-.78.39-1-.25-.08-.82.43-.4L15.59,69l-.11-.79.11-.75,1.13-.76-.23-1.57.31-.86.52.14L17.7,64l-.44-.83-1,.08-1.09,1.61-2.31-.11-.2,1.07.66.54-.11.39-.84.26.15.64L10,67.89l.14.72-1,.25.2.5-.49,1.07L8,70.72l-.34-.82-1,.43L4.55,70l-.66-2.22.38-.33-.61-.61L4,66.39l1.3-.32-.32-.43,1-.86,1.41.39L9,66.39l.9.07L11,65.67l.64-1.32-1-.72-1.16.72.06-.72,1.33-1.86-1.36.65-2.1-1.19L8.5,59.77l-1,.21-.34-.47-1.65-.07-.95.61-1.7-.93.15,1L4,61l.17,2.22L1.24,66.1H.78l.14-.86.58-.32-.37-1.29,1.23-1.79-.43-.68.35-.46-.17-.32-.78.32L1,60.09l.26-.75-.43-.08.2-.53-.89-.5L0,57.62l2-.4,0-1.39.46.57,1.16-.93L4,53.74H3.49L3.23,53,4,52.6,4,52l.72-.07.2-1.29L3.46,49.3l1,0-.64-1.14.69.32L5,47.61l.09,1.19,1.12.07L5.71,50.3,6.4,51l-.2,2,.25.21.49-.79L8.36,56l.69.39-.58-2.9L7.55,53l-.29-1.33,1.21-.1L6.91,49.84,8.15,49l1-2.16L8.1,46.9l.05-1.33H7.43L7.35,45l1-.75-.58-.76-1-.18L6.86,43,8,42.63l.49.57.46-.11.32-.61-.32-.36.75-.43-.2-1.07,1,.86.6-.9,1.71-.43.28-.75.55.28,1.07-.39-.49.75,2.94,1.44,1.12-.25L17.84,40l.92-1.43-.32-4.06L17.61,33l.46-.79H19l.58-1.08.57-.11.29.83-.49.9L18.85,33l.89,1.15.69-.4.41.29-1,1.43V39l.72.5.14.82.95.29.21,1.76h1.06l-.14.61-1.35,0-.44.39,0,.9-1.06,1.32,0,1.12-.68.68-.09,1.29,2.3.5-.17.75-2.1,1-1.24,0-.26.82.75.47-.23,1.43.55.68.57-.57-.14-.64.4-.29.29.57.35-.21-.35-.68.38-.47.83.47.95-1,.58.65.66,0,.09-.43-1-.83-.11-.82.43-.47-1.07-.82,1.24-2.94.84.5.92-.18L24,48.12,25.39,50l.89.11-1-2,1.59-1.36,0-1.47-.69-1,1.35-.79,2.13.29-.17-1.69.78.32.11-.82L31.5,42l.32-.54L33,41.41l.14-.4-.49-.61-1.87-.28.23-.87-.61-.39-.08-.32.95.21.57-.57,0-1.65-1-.47.05.5-1.06.11-.84.86-.69-.61L28,35.52l-1.3-.28-1,1L25.42,36l.49-1.18-1-.18-.2-1.26-1.59.18.23-1.18h2.71l.78,1.22.49-1.08h1.21l.12-.4-.15-.35-.95.17.12-.79-.61-.57-.89.54-.2-.54-3.26-.25-.35-2,.78.39,1.82-1,.34-.86.9.57L28.13,27l.37-.76.4.54,4-.11,2.94,1.48,1.39-.72-1.1-2.08.46.1,2.39-2.77-.57-.61.78-1.51h.54Z"/><path id="KR-50" class="cls-1" d="M123.47,72.45l1.71,2.4-.34,3.08-2.4.69,3.08,3.77v3.08L126,87l3.66.22-.1,1.6-.91,2L129.86,92l-2.05,6.7.64-.86.43-.36.78.16.68,1,.34,0-.36,3.61-1,3.08-3.77,1.72-1,0-2.77.64.35,9.59-2.4,2.74-1.87-2.25-1.93-1.48-1.33-3.41.15-4.44-.3-3.1-1.48-4.29-3-1.63-2.07-2.81-.15-2.22L109,91.76v-3.4l-.15-3.85-.29-3.7.73-2.66-.29-3.4-.59-2.22-1.19-2.22.45-1.93,3-1.18,2.81.89L115,69.86l3,1.78,2.82,1Z"/></g></g></svg>