<svg xmlns="http://www.w3.org/2000/svg" viewBox="0 0 237.67 211.71"><defs><style>.cls-1{fill:#fe7901;}</style></defs><title>강원도</title><g id="Layer_2" data-name="Layer 2"><g id="Layer_1-2" data-name="Layer 1"><path id="KR-42" class="cls-1" d="M131.8,0l1.56,3.09,2.36,3,.64-.19.86,1.91,0,.81-.57.59.75.88-.09.58,1.27,1.1-.64,1.44.41.88.86.22L139,15.93l1.09.84-.2.92.75.4,2.42,3.19-.49.63-.17-.34-.58.26-.05,1.87,4.15,6.37,1.9,2-.69.48.29,1.83,1.75,2.45,0,1.61,2.54,2.19-.26,1.87,1.1,2.05.08,2.26,3.75,5.49.64.21-.81.44-.09.81,2.22,3-1,1.1.55,2-.18,1,.64,1.39,1,1.42.75.29,1.06,2.34,1.56,1.9,1.76,1.27.78,3.32,4.43,4.74,1.21.11-.54,2.07,4.12,6.78,1.85,1.31L176.22,89l3.6,3.68.9.43.43,1-.52,1.78,2,2.91,2.77,2.62.26,1.6,10.43,11,4.07,5.52,4.12,3.77L204,126l-.6.18-.58,1.16.18,1.05,2.62,3.55,4.93,4.06.4,2-1,2.13,1.38,2.46-.34.76,1.53,2.17-.44.29,1.94,1.52,3.74,4.31,1.21,5.53,5.31,4.12.08,2.45,1,1.27.78,3.82,2,1.77,1.12-.11.52,2.78.69-.29,1.13.36-.06.72.95.47-.29,2,2.33,2.12.06,1.16.69.47-1.61,1.22.78,2-.92,2.63.6,2.84,1.33,1.34,1,2.7.64.29-.35,1.29.9.92h0l-4.7.78h0l-2.05,2.4-2.74,1-3.08,2.74h0l-1.72,2.4v1.37h0l1.72,3.08-7.18.18h0l-2.92-2.5-3.24-1.13-2.86-.44-2.8,2.77-1.11-.22L201.62,206l-3.67-.75-1.28,0-2.4.81-.74-1.45-1.89-.75h0l-1,.65-2.17,4.07h0l-1,1.37H183l-3.77-3.08-3.08-1.71-2.22.2-.71,2.54.11,2.64-.39.83-.83.4-1.6-1.05-1.77-.46-2.1.28-3.38-2.3-1.29-.27h0L160,206.43h0l-.7-.86h0l-2.34.28h0l-1.49,0-4.35-1.4h0l-1.77-.79-2.16-2.41-1.83-.58-.38.48h0l-1,.46h0l-3.62.64-.89-.27-.35.65-.83.14-.89-1.54h0l-.2-.9h0l-1.26-.59h0l-.52-.31h0l0-2.15h0l.1-.73h0l-1.06-.89-1.6.36-2.65-.21h0l-.95.05L128,197.19h0l-1.6.15-.56.57h0l-.76.52-2.54-1.94h0l-.73-1.86,1.67-1.39h0l1.92-.84h0l2.58-3,.12-1.5-.64-.57h-1.07l-1.5.91h0l-1.16.29h0l-1.87-.25-1.62-1.9-2.33-.48-2.18-1.66-2.7.65-1.22,1-.74,1.66-.74.1-3.27-1.1-1.74,1.95L103,190h0l-2.35.4h0l-2.24.91h0l-1-.36h0l-.37-.53.07-3.7h0l-2-3.63h0l-2.24-.57h0l-2.44.08-1.64,1h0l-2.61,1.85-.51,1.1.3,3,.79,2.19-.47,2-2.24.87-.48,1-.74.4-2.55-1.26-3.33.1-1.59,2.06-2.4,1-4.45-3.43-.68-3.82h0l.68-8.17-.69-3.76,1.71-1.37-.34-8.23,3.77-8.9.34-4.45L71.22,155l-.87-2.62,3.05-3.44.4-1,2.26-.77.88-2.4-1.4-1.7-.42-1.48-2.46.18-.94-.87-2.5-.68-3.94-.13-4.73-4.06-2.95-.35-2-1.6L53.08,133l-4,1.54-1.41-1-1.49-2.12,1.92-3.85.34-4.82-1.71.61-.82-.16-.72.7-.69-.16.13-2.22,2.37-2,.59-1.34-1.45-3.85v-1l.9-1.15-.22-1.92-.71-1.32.65-1.67,2.48-.83,2-2.26,2.88-.63.76-.55L56,98.58l-.89-4.43L53.48,92.4,51.27,92l-2.4-1.14-.09-3-1-.66-3.54.37-3.39-1.68L39.5,84.16l-.33-1.56-.44-8.25-1.57-2.17-.8-.1L35,73.33l-.77-1.06-1.53-.64-1.63.21-2.6.89-1.34,1.55L26.58,74l-2.11-2.39L23,71.34,21.67,70l-.34-2.17.6-1.23.28-2.44,1.19-1-2.16-1-.62,0-1.55,1.44-1.85,2.63-2.67.18-1.81-.91-.55-1,.12-2.47-1.09.33L11,61.24l.69-2.05L10,57.82,9,52H3.83V49.94l1.37-1L0,44.06H0l1.09-1.28,3.35-2.29,1.21-.25,2.48.67L12.2,39.5l3.28-2,3.75.58L21,39.44,22.63,39l1.86.32,1.25-1H28l2.07-1.12L32.34,37,34.5,38l1.37,1.17L37.6,39l2.43.92,2.44,1.55,5.83-3.52,3.22-1.13,1.58.35,1.27,1.23,1.66.1,2.5-.55,2.92.74L63.6,37.2l6.35.32L72.74,36l.68.39.78,2L76.77,41l2.34-1,2-.21.9-.5,1.42-2,6.9,2,2-.48,7.08,1.59,3.25-.51,3.27-2.68,2.89.12.78-.42,3.21-3.25L117,31.06l1.42-2.32,1.93-1.26,4.14-4.05,2.37-5.05-.25-1.59,1.15-3.46-.58-10,.62-.82Z"/></g></g></svg>