<svg xmlns="http://www.w3.org/2000/svg" viewBox="0 0 204.97 319.75"><defs><style>.cls-1{fill:#fe7901;}</style></defs><title>경상도</title><g id="Layer_2" data-name="Layer 2"><g id="Layer_1-2" data-name="Layer 1"><path id="KR-26" class="cls-1" d="M166.38,224.06l.05.84h4.36l1.48,1.47h0l1.1,1.84-.19,1.66-1,.35-.67.84-.4,1.13.29,1.83-.81,2.56-1-.07-.11,1-1,.14.63.6,1.12-.39.35,1.79L169.11,243l-.69,0-.37-.53-.67,1.55.87,1.51-.09.52h-.49l0,1.37-.55.28-.34-.49-.58.81-1.09.14-.64,2.42-.83.18-.41.59-1.81-.66-.67.1-.75.91-1.81-1.19.11.88-1.78.25-.26.59.32.95-.72.74,1.12.17.57,1.65-.14,2.88-1.3-.71h-.77l-.32.56-1-.21-.11-1.12-.24.7-2.13-.28.23-2.17-.77-.49-.64.87-1.33.57-.34.63.26.42-1.79,1.89-.23,2-.89.11.74,1.58-.77,1.26-1-2.24-.2-1.69-1.18.21,1,4.24-.37.6-.66-.14-.18-1.61-1.06-.39-.32.74.69.17-.14.91-1.27-.14.75,1h-.49l-.81.91.12-1.93-.81-.42-.89-3.64.6-3.33-.63-.07-.38,1.89-1.27.84-.14-1.29.52-1.76-.46-.1-.75,2.21-1.38.8,0,1H133.4l.55-4.17.58-.81-1.16-.42-1.07,5.4-1.64-.56h-3.23l-1.64-1.79-.26.77-1.7.18-1.26,1.43-.58-.07-.26-.91.84-1.16.94.18.24-.7-1.39.21.35-2.55h0l.22-.51,2.67-1.1,4.71-1.26.48-5.5,2.51-.32,4.24-2.67,4.56-.15,1.57-1.73.94-2.2.87-.22,1.08-1.28,4.34-2.72,2,.35,1.13-1.48.94-3,1.89-2.83,5.34-.63.63-2,3.24-3h0ZM150.46,258l2,1.76-.32,1.79,2.13,1.78-.54,1.19h-1l-.52-1.29-.69.28-.55-.53-.09-.87-1.44-.46-2-2.07,0-.52.89-.57Z"/><path id="KR-27" class="cls-1" d="M96,189.63l-.85,1.1-.89,3.94-1.18.66-2.66-1h0l-1.67.41h0L84.9,197.5l-2.65.06h0l-.81-3.76L77,188.32l.34-3.08,2.06.68,1.71,1.37h2.4l.68-2.74-3.42-3.76,1.37-3.43,1.37-3.08,5.82-1L89,171.2l-3.08-2.4-5.14-.34L81.1,165,82.47,162l2.4-3.43,2.39-.68,2.06-1.37.68,6.16h2.75l1-3.42,2.74-5.48,6.51-1.37,3.08-3.43,3.77-1,3.42.35,4.12,3.42v4.8l.68,3.42,2.06,4.45-1,2.4-3.77,1.37-1.71,3.77v3.42l-2.74.35v2l1.37,1.72v4.45l-3.77,1.37-1.71,2-3.08-.34-.69-3.08H99.59l-2.39,1.37L95.49,188Z"/><path id="KR-31" class="cls-1" d="M165.5,184.77l2,1.61,2.21.34,1.07.65.26.9h0l-.47,3.12h0l.32.85.8.37h0l2.17.71h0l1.56-.26,3.1-2,1.23-.33h1.63l5.37,1.9h0l1.93.46h0l3.18.45.76,1.6,0,1.51-.81.22-.43.63.58,3.46-.66,1.16-.06,1.48-.12.39-1.12.18,0,.53.81-.43-.21,1.73-1.32.57,0,.31.92-.17.14.67L189,208l.2.5,1-.42.4.7-.51-.07-.61,1.37-1.1-.45.09.38-1.1.14.06.57-.58.53-.46-.21-.25-1.63.43-1.09-.7-.92-.57-.06.2-1.52-.89-1.73-2.13-2.33-1.65-.52V202l1.53.53,1,1.3-.09,1.24,1.07.28-.09.91.46.67-.34.49-.58-.24-1.12.39-.55-.49.58.77,1.06-.28,1,1.72-.69.5-.14,1.27-.73.24-1.29,1.55-.75,0-.55-1.23-1.15-.6.75.88.08,2.43.32.28.95-.35L181,215.3l1.5-.81-.46.81.46.95-.34.42-1.13.07-.26.85.43,1.26H182l0,.64-.54.17-.32,1.55-.9.39-.23,1.09.12.81,1.06.32.78,1.62-1.64.95-.61-.6-.69.07-.54,1.23-.67,0-.11.73-.55.25-.34,1.2-1.19.06-.29,1.31-1.26-.14-.32-.88-.6.28.19-1.66-1.1-1.84h0l-1.48-1.47h-4.36l-.05-.84h0L164.69,222h0l-3.39-.23h0l-2.45-2.07-3.76-4.38h0l-3.58-3.68-2.64-.23h-3l-2.45-1.15L143,205l2.44-2.08h0l1.32-1.15v-1.61l-1.61-2.66h0l4.3-3.39h0l1.83-.2h0l.73.15.73-.95-1.49-2.72-.24-1.17.65-.54,4.56-2.83,3.42-1.12,1.78.33,2.84-.73Z"/><path id="KR-47" class="cls-1" d="M97.38,189.41h0l.76,1.4-.51,3.35h0l.86,2.6,1,1.42L101.8,200h0l1,1.19,1.52.77h0l6.45-1.21h0l3.78.84L119,203.8h0l2.11.63,1.72-.62,4.33-3.59,1.11.33h0l1.25-.48,2-2.52h0L133.7,196h0l2.31,0h0l1.47.11,1.75.85h0l1.41.77h0l2.65.95h0l1.06-.39h0l.84-.86,4.31-3.39,1.82-.2h0l.74.15.72-.95-1.49-2.72-.24-1.17.65-.54,4.56-2.83,3.42-1.13,1.78.33,2.85-.71,1.2.46,2,1.61,2.2.34,1.07.65.26.9h0l-.47,3.12h0l.32.85.8.37h0l2.17.71h0l1.57-.26,3.1-2,1.22-.34h1.63l5.37,1.9h0l1.93.46h0l3.31.25-.89-.29v-.6l-.7-.63-.26-2.54.84-.43.55-2.19,1.15-.1v-1.77l.58.07.69-1.48-.49-2,1.36-3.07-.15-1.63,1.07-1.09-.38-.89.29-1.38.41-.21-.7-2.09,1.07-.84-.29-.64,1-1,.37.21.26-1.49-.57-.85,1.24-1.66-.2-1.49.75-.6.05-1.2.87-1.1-1.76-.35.23-.89,1-.28-.49-1.45.95-.82-1.61-2.58-.06-1,1.58-.85.75-1.85.9-.21-.21-.57.87-1.59-.4-1.31,1.52-1.35,0-1,1.87-2.48-.75-1,.55-.46.06-.46-.61-.39.43-.18.26-1.24-1.44-2.84.11-1.28-1.06-.32-.23-.85-1.36.32,0,1-1,1.49-3.37,3.65-.06,1.46-4.58,2.73-.26,1.35-.89.28L188,144l-.47-.85.78-.92-.6-.57-2.57.68.2-.82.81-.39.49-.89,1.53.36,1-.11,0-.46-2.85-1-1.85,1.28-1.09-1.82.72-2.55h1.44L186,135l1.82-.64-.2-1.6,1.33-1.17.11-.64.09-1.06-3.32-2.74-.52-1.24.69-1.85,0-1.35-.67-2.17-.2-.43-1.33-.25-.92-1.74.23-.78.92-.25.38-1.43-.49-1.42.49-1.1-1.35-1.6.31-2.14.58-.6-.75-1.75.49-.28.31-4-.28-1.35,1-2-.09-1.07,1.85-3.17.23-1.14h.51L189,91.37l.63-2.1-.31-1.86.46-3-.41-2,1.19-1.07.11-2,.67-.25-.52-.86h-.44l-.31-5.07-2.34-2.64-.63-1.36-.2-2,.66-.32-.43-2.75.52-2,1.18-1.32.92-2.86,1.3-1.08,1.44.07.43-1.93,1-.72-.6-2.82.6-.58,0-1L193,48.13l-.11-1.44L194,45.48l-1.59-2.62-.63-3.55-1-1.14-.12-1.12-1.84-2-.92-2.65.25-.69-.69-1.39-.08-.83.6-.61-.57-1.47.6-4.67-1.29-4.34,1.15-2.05-.06-1.55-1-3,.75-.58-.43-1.4.23-1.37.69-.46.61.39.46-.32-.67-1.15-3.14-2.3-.11-.69-1.85-1.62-.2-1.29.61-.92h0l-4.7.79h0L177,3.18l-2.74,1L171.19,7h0l-1.72,2.4v1.37h0l1.72,3.08L164,14h0l-2.92-2.49-3.23-1.14L155,9.92l-2.8,2.76-1.1-.21-3.38-1.92L144,9.81l-1.28,0-2.4.81-.74-1.45-1.89-.75h0l-1,.65-2.17,4.08h0l-1,1.37h-4.45l-3.77-3.09L122.2,9.69l-2.21.2-.71,2.55.11,2.63-.4.83-.82.4-1.6-1.05-1.77-.46-2.1.28-3.38-2.3L108,12.51h0l-1.4,1.41h0l-1,1-.51-.25h0l-1-.36h0l-.82.34h0L101.67,17l-.91.52h0l-.68.3h0l-3.61,3.57-3.08.89h0l-.86,1.36h0L92,24.7l-3.38,1.92-.1,1L86.91,29.2l-1.74,3.64h0l-.91,1.72h0L84.2,36l1.44.67h0l.59.9h0l.29,2.3-3.13,4.28h0l-1.57.33h0l-2.31.17h0L79,45h0l-1,1.13-2.68-.06h0l-1.8.48-.6-.28h0l-1.14-3.07-1.6-2.33-3.55-2-1.3-2.17h0l-1.19,1.4-.3,1.12h0l-.34.83-1.24.38L62,43.27h0l-.22.7h0l-.41.63-5.71-1.43-.55-.48h0L54.63,42h0l-1.17-.42-.67.69h0l-1.52,1.26h0L50,45.66h0l-1.51.21h0L46.7,44l-.56.34-3,7h0l-.17.38h0l3.56,4.89.16.87-1.3.11-3.75-1.11h0l-1.29-.73-1.33.64h0l-2.4-1.12h0l-1.24-.67h0l-1.28,2.57-1.87,1.53L30.5,59.75l-2.2.14h0l-.71.28h0l-1.85,2.61.53,2.44h0l-.49.76h0l-2.42,2.1h0l-.64.8h0l-1,1.66-.9,0h0L19.08,71h0l-.9,1.1-.19,1,.8,1.21,5.89,1.24L26,76.85l-.16,1h0l.42,1.71.64.46h0l1.8.74.4.75-.46,1.87h0l-.14.62h0l-2.07.37h0L26,85.85h0l.33,4-.74,3,.65,1.29v1.42L24.8,97.69l1.45,3.57h0l.54.33h0l-1.1,2.82-2.92,2.53h0l-.07,4.71.4.86,2,1.09h0l2-1.18,1.27-1.65.45,0,.51,1.58,2.46.88.28.75h0l.1.55h0l1.08.35h0l.85.82h0l.37.55.92-.11h0l2.18-.92h0l2.45-.87,2.22.77h0l.68,1.17h0l-.39,1.17.55,2.31h0l.63,1.44.76.62h0l-.1.87-1.27.61-2.71-1.63-2.64,1.57-1.3,1.91.09,1.31,1.2,1.94L37.17,130l.11,2.37L35.35,134l.2,1-1.09,1.84-.25,2.24-2,2.85-.82.37-1-.74L29,141.8,27.85,143h0l3.82,6.22L33,152.82l-.3,3-1.12,2.47h0l.14,2.12.63,1,1.25,1,1.72,0h0l.78.4h0l.33,2.87,1,.62h0l2.35.36h0l1.95.23.64,1.24,1.27.7h0l4.87.86h0l2.81-.29h0l1.63.83h0l1.7.82.54.81.85,3.15h0l.73.55h0l2.27,1.08.72,1.26-.25.67,2.76,1.64,1,2-.27,2.42-2,4.37h0l-.29,1.82,1,1.79h0L66,194.18l2.46-.34h0l1.31-.34h0L73,192.31l2.41,1.19,2.51.3h0l2.46,2.39h0l1.88,1.37h0l-.8-3.76L77,188.32l.35-3.09,2,.69,1.71,1.37h2.4l.69-2.74-3.43-3.77,1.37-3.42,1.37-3.09,5.82-1L89,171.19l-3.08-2.4-5.14-.34L81.1,165l1.37-3.08,2.4-3.42,2.4-.69,2.06-1.37.68,6.17h2.74l1-3.43,2.74-5.48,6.51-1.37,3.08-3.42,3.77-1,3.42.34,4.11,3.43v4.79l.69,3.42,2.05,4.46-1,2.4-3.76,1.37-1.72,3.76v3.43l-2.74.34v2.06l1.37,1.71v4.45l-3.77,1.37-1.71,2.06-3.08-.35-.69-3.08H99.6l-2.4,1.37L95.49,188l.49,1.66h0l.33-.24Z"/><path id="KR-48" class="cls-1" d="M32.38,161.41l1.25,1h1.72l.77.4h0l.34,2.86,1,.62h0l2.35.36h0l1.95.24.64,1.24,1.26.69h0l4.88.86h0l2.8-.29h0l1.64.83h0l1.69.82.54.81.86,3.15h0l.73.55h0l2.26,1.08.73,1.27-.26.67,2.77,1.64,1,2-.27,2.43-2,4.36h0l-.29,1.82,1,1.79h0L66,194.18l2.47-.33h0l1.31-.35h0L73,192.31l2.41,1.19,2.52.3h0l2.46,2.39h0l1.83,1.36,2.7-.05,3.83-2.75h0l1.67-.41h0l2.66,1,1.18-.65.89-3.94.85-1.1.33-.24h1.07l.76,1.41-.51,3.35h0l.86,2.6,1,1.42L101.8,200h0l1,1.19,1.52.77h0l6.45-1.22h0l3.78.85L119,203.8h0l2.11.63,1.72-.62,4.33-3.59,1.11.33h0l1.25-.49,2-2.52h0L133.7,196h0l2.31,0h0l1.47.11,1.75.84h0l1.41.78h0l2.65.95h0l1.06-.39h0l.84-.87h0l1.62,2.67v1.61l-1.32,1.15h0L143,205l.38,5.3,2.44,1.15h3l2.63.23,3.58,3.68h0l3.77,4.37,2.44,2.07h0l3.4.23h0l1.39,1.7h0l-3.24,3-.63,2-5.34.63L155,232.17l-.94,3-1.13,1.48-2-.35L146.56,239l-1.07,1.28-.87.22-.94,2.2-1.57,1.73-4.56.15-4.24,2.67-2.52.32-.47,5.5-4.71,1.26-2.68,1.1-.22.51h0l-2,2.44-1.07-.8.17,1.37-1.32.1-1.16-.84-.72,1.15h-.52l-.4-.8-.95.21-.06-1-1.35,0,.11.56-.77.35-.78-.81-.24-.52,1-.46.89-1.44-.72-.84.06-1.16-1-.31.23-1.09-1.85.88.58,1.93-1.3,1.05-.37-1.69-2-.8-.18-.84.49-.64-2,.36-.47,1.89-.69-.91-.92.28.84-1.19-.72-1.13.2-.94-.61.24-1.06-1.44-.23-3.54,1.78-1.34,1.59-.17,1-1.09-1.35.8-3.26.67-2.42,2.85.52,1.37,1,.38-.69.67.37.77.63-.35.61.49,1,2.32-.38.59-1.12.32-.9-.32-.14.77,1.12.39.9-.56.75.1-.35,1,.4,2.7,2.69,2.14,0,.32-2.5.38.86,1.06,1.5-.36.92.36,0,.41-3.08,1.27-3.43.66.6-1,1-.28.38-1.16-.38-.07-.46,1-.34-.46-1.82.25.63,1.5-.51.35-.81-.17-1.41-2,2.45-.17-.35-1.34,1.07-.73,1-.07v-.43l-4.15-1.26.66-.8-.4-.39-.55.35-.09-1.58-1.12,2-.58-.17-1.12.87-.69,0-1-1-1.13-.31L91,258l-1.13.45-1.55-.91-1-.07-.23,1.16,3.25,1.89V261l-.46.38-.72-.81-.46,1.06-2.3.21L85,263.92H83.7l0-.91-.43-.07L82.11,264l-1.7.42-.09.6-.83-.46.78,1.75-.93.74-.43-.21.15,1-1.24.95,0,.73.92-.8,2.07-.39.12-1.93,1.64-1,4.47-1.12-.64-1.09.44-1.12.86-.21.44.91,1-.56.08-1,1.39,1.44-.49.95.43.38-.29,1-1.47-.39-.49.31.78.57,1.44.17.43.63-.46.91,2,1,.11.67-1,1.37-.4-.7-.52.1.15,1.3-.78.1,0,.74-1.41-.56.37,1-.43.14-2.39-.81-3.32-.07,0,1.58,1-.56,1.19.1,1.32.43.26,1.15-1.1,1.54-1,.6.63.28.09,1.19-.55.66,1.1,1-.72.49.08,1.44-1.21.84.87.84-.67.84.44,1.68-.24,1.36,1-.73.29-.56-.37-.15.08-.55,1.59-1.58-.14-.77-.7-.49.18-.35,1.35-.1.72,1.22-.08.63h.49l.08.91.9-.11.17.39-.84,2.52-.75-.25-.4-1.22-.35,1,.35,1.12-1-.14.69.95-.15,1.54-1.84,1.11-.89-.31-1.59.7,3,.7.26,1-.29.63.26,1.64-1-.31-.12.49.9.94-.64.59-1.44-.28,1.67,1.33-1.12,1.47-.14,1-1.85-.11-.26-.7-.63.39-.09-1.85-.23-.21-.66.63-.23-.6.54-.7-.92-1.32-.69,1-.2-.66-1-.18.87-1,.77-.07-.4-.6.35-.8-3.29-1.33-1.15,1.05-.63-1.15v-.49l.37.38.63-.35-.26-1.57.55.11.17,1.11.55-.31-.17-.8.66-.18.52.39-.14.63.81.56.69-.6,1.35,2.76-.2-1.92,1.1.35,1-.84-.51-.31-.7.66-.26-.7-.6.07.46-.94-1.44.1.34-.52-.75-.74.84-.1,1.06-1.4,2.48.52.72-.38-.37-.67H80.68l-.55-.73.34-1.12-.4-.74-.32.77-.86-.45.69,1.61-.38.45L77.48,287,77,285.11l-.23,1.71-.72-.21v-.9l-.83-.11.4.66-1,.21,0-1.36-1.18.87-.69-1.61-1.27-.94V283l1.53-.77h2.74l.86.53.87-.39-.35-.56.32-.73-.75-.07-.17-.28.4-.18-.66-.63.2-.94-.52-1.68-.52.49-.6-.28.23-1.19-.38.17-1.06-.87.2,1.29-.38.14.49.77-.46.07-.2.67-1.56.24.52,2.28-1.55,1.12-.78-.81,0,1.54-.64,0,0-.74-1-.24.26-.74-.69-.56.8-1.5-.34-.74-.7-.1-.4.49-.72-.67-.32.77,0-.94-.64-.21-1.15.56-.64-.67-.46.91-.57-.45-.21.49-.34-.32-1.1.49.87,1.4-.55,1.37.35,2.69L59.52,284l-.72-1.54-.23,1.33h-.81L57,282.49l-1.76.63-1,1.71-1.09-2-1.15.28L51.25,282l.66-1,.72-.17.21.59.26-.87L48.54,280l-.11.42-2.28-.77-1.5-1.37,0-.77-1-1.47,2-1.5.41-1.05-.84-.43-.64-1.85,1.13-2.56-.46-.87-.81.7-.17-.56.66-1.13-.29-1.33,1-3.54,1.27-1.08-.69-.36L44,262.21l.23.66-1,.95.43,1.16-.35,1.68-.6.66L41.51,267l-.38-.52,1.3-.7-.26-.77,0,.49-.77.45-.35-.66-1.9-.35-.55,1.36-.43.11,0,.31h1l.26-.87.92.17-.17.74L41.48,268l-.14,1.2,1.24.28-.44,2.45-.77-.46.05,1.68-.49-.21.21-.56-.78-1-.49.18.14,1.26-.46-.63-.46.21.6.8-.95.49-1.24-2.38-.86.21-.52,1.3-.49-.25-.52.35.55.95-1.64-.6.4-.91-.66.24-.29-.7.34-.56.49.32.09-1.37-.78-.21-.92-1.36-.52.77.32.8-.7,1.54.24,1.09H31l.43,1.37-1.1.13-.55,1.09.21.39-.81.63h-.81l-.4.84-1.59.21-.49-.5-1.15.5-.26-1.68-.46-.28-.17.7-.61-1-.46,2.31-.55.35-.51-.8-.83.17-.1-.49-.76-.36,0-3.22-1.73-4.51h0l-1.92-1.46h0l-1.29-2.06-1.78-.75-.84-1.36h0L11.33,262h0l-.21-3.18-3.34-4-2.44-1.24-1.43-1.86-1-10.11L0,238.34l0-1.72.86-.76h0l.25-.23h0l2.43-2.53L3,230l.37-1.27.9-2.18,4.06-3.91.61-3.81h0l-.11-.59h0L7,217.72H7l-.76-2.12h0L7,211.93H7l-1.4-2.49h0l-.55-1.15.09-2h0l-.76-.77-2.28-.74h0l-.19-2.54h0l1.74-3.6h0l.86-5.2h0L6.61,188l1-1.59h0l1-.87.17-2.11h0l.86-5.29,1.83-1.26,3.59-3.94L16,170.4h0l.73-1.32h0l.2-.64h0l.23-.7.48.18h0l.78.54h0l1.44-.06h0l2-1.26h1.61l1.95-1.81,1.45-.26.6-2.13,1.65-3,2.55-1.66.14,2.13Zm94.33,100.94.44.07.11,1.5,1.13-.31.51,1.93-1.78,3.75.72.87-.64,1.58-.8.45.29-.66h-.84v-.84l-.38-.21.15-.88.75-.45-2.25-1-.09-.42.72.07.41-.52-.84-.67.49-.21-.06-.74-.57-.77-.84-.14-.14-.77,1-.31,0-.42,1.72-.11.15-.73ZM111,265.64l.8.32.49.94.84-.1-.06-.6.58.56h.86l1,1.61-1,1.83-.6-.49-.55.38-.12.42.58.21.09.53-1.5.07.2.66.66-.1-.57,1.26.14,1.19h.72l.43,1,1,0-.2.91.41.85.72.2.14,1.27-.46.24-.49-.35,0,2.38.57.84-.4.56-1-.32.69,1.44-1.06.17-.38.77-.75.32-.06,1.15,1.59.32-.49.7.37.28.84-1.61,1.21-.84,1.07.63,1.29-1.16-1,1.33.18.53-.64.1.49,1.37-.72.77-1-.6-.29.28L117,290.5l-1.24.31-.63-1.08-1.76,1.15,0,1,.69.59,1-1.12.81.6.11.63-.78.56,2.2,3.7,0,.84-.54.11-.55-.84-2.08-.21,0-.46.64-.42-.84-1.5-1.06.7.11,1.33-.32.07-.75-.21.38-.53-.15-.84-2.27-.48-.26,2.51.78.95-1.59,1.39-1.3-.49-.8,2,1.53,2.62,2.16-.28.8.49.15.45-.69.14,0,.94-.58-.9-1.56-.56-.43.7-1.3-.21-1,.63-.2-.77-.52.83.93,1.33.89.25.26.59-.44.42-.69,0-.63-.55-1.64,1.6-2-1-1.41.84-.18-.6.55-1.08.81-.1-.32-.74,1.93-.52.35-.56-.64-.77-1.5.07-1-.52,0-1.4.49-.56-.29-.73,2.25-.18-.06-.48-.89-.35.55-.95-1.56.32-.78-.39-1.35,1.54-.84-.21-.08-1,1.55-1.53-1.09-.18-1.53,1.71.26-1.15-.72-.42,1.06-.17.26-.6,2.19,0,1.3-.56,0-2.52,1.15-.94-.09-.84-.77.21-.21-.94-.72-.21-.17-.53,1.15.35,0-.77-1.58-.91-1.07,1.47.17,1.26-2.56-.31-.23.76-.84-.48-.52.69.41.81-.84-.28.4,1-.72.84-.66,0-.14-1.09-.9-.77.75-.94-1.32-.17-1.39-1-.4-1,.29-.38-.69-.42.4-.39-.58-1.92.46-1.4.84-.59.78-1.47.89-.07-.43-.77.89.39-.52-.88.67.45.92-.24,0-.7,1-1,1,.21,1.06.95,0,.59,2.14,1.33,1-.17.06-.46-.66-.56,1.58-.84.58.91.58-.28.23.73.87-.42.75,1.58,1.1.35,0-.81-1-1.61.29-.69-1.1.31.29-1.16-.78-.1-.86-2.07-1-.31.38-1.16.46.46.57-.63-.14-1.51.81-.56.51.32-.55,1.19,1.24-.7,1.62.31,0-.7,1,1,.81.18.31-.35-.6-.25.11-1.22.55-1,.63-.25-.54-.07-.06-.73,1.15-.28-.55-.88.81.39.38-.53.43,1.09.66,0-.8-1.44.92-.17-.12-.63-.46.45-1-.31.43-1.82.44-.07,0-1.4,1-.14-1-.63ZM107.92,268l.52,1.37-.72,1.37-.06.45.64.18-.69.07-.06,1.89-1.9.42.31-.46-.86-.31-.44,1-.83.21.23-1.54.49-.25.2.35.81-1-.09-.32-1,0,.12-.57,1.73,0-.26-1.22.69-.85.57.42ZM29.5,277.51l.6.6,1,0,.09.48.52-.38.23.73.2-.87.69.31-.43.71.78,2.34-.52,1.71.17,1.37-.63,0-1,1.05-.78-.1L30,287l1.09,2.45.69.49-.63,1,1.61,1.16.78-.32,1.1.74.17,2.34,1,.49.86-.21.38-.35-.75-.6,2-.76-.12-.74,1.36-.77,2.94.21.05-.35,1.1-.17.43.91,1.18.63.26-.42,1.3.52.6,1-.51,1,.43.49-.49.35-.81-.28-.14.7.66.35-.84,1.33,1,3.87-.28.77-.72.21-1.36,1.43-.2.91,2.74,1.95-.72-.34,0,.48-.66.07-.44.7-.8-.14.14-.52-1,0-.26.87-.55-.17.72-2.13-1-.66-.87.31.35.77-.26.42h-.52l-.29-.56-.87.35-.37-.91-.52.32.43.76-.43.49-1.21-.35-1.61.28-.44-.94.52-.21,0-.52-.73-.25-.66-2.79.43-2.31.72-1-.46-.6-2.3.21-2.48,1.26.78,4.05-.55.8-1.79.67-3.28-.7.46-.81-1.19-.45.58-.59-.37-.74-1.65-.1-.17-.94.64-.14.23-.67L24,300.1l1.18-.28-.66-2.2-.81-.28-.4-.77.25-1.57-.92-.35.06-.8-1.53-2-.63-3.11,1.07-1-.23-.81.31-.38,1.07-.07-.2-1,.66-1-.37-.35,1.09-.6.2-.94.44.66,1.81-.24-1.06-1.4v-.95h.57l-.46-.77,1.18-.42-.09-.62.55-.74Zm14.2,3.05.26.77-.77,1.85-1,.91-.61,3.47,1.41.31-.14-2.27,1.44-1.93,1.1.14.23,1.75.66-.28,1.18,1.44-.14,1.53-.84.28-.37.88.83-.35.29.8-.43.49h1.59l0,.77,1,.28.17,1.08h-1l-.55-.94-.81.67-1.06-1-.87.35-2.51-1.68-.34,1.33-1.53.35-1.78-.07-1.82-.91.29-.39-.84-.8-.26-1.29.2-1.05,1.44-.91.12-.91,1.27-1,0-1.15.75-1.05,1.94-1.16L43,281Zm17.65,7.84,2.53,1.08.84.87-.29.35L62,290.6l-.63.45-.52,1.36-1.07.42-.61-.84.46-.59-1.41-.35-.31-1.47Zm3.8,2.41L66.53,293l1.64,1-.6.88-2.22-.21.63,1.26-.34.8-.52-.84-1.38,0,0-.87-1.38.07-.15-.42.75-.17-.2-.35-1.5-.42.17-.88.44.46.89,0-.72-.67,1-1.36Zm25.68,2.93.11.35-.77.42.4.46.11-.49.47,0-.26.6.75.84.11,2.34,1.33-.28.6.9-.34,1.3-2.08,1.22-.72-.56-1.47.07.4-.28-.4-.7.64-.28-1.47-1.95.34-.6-.09-1.92.58.63L89,297.17l.84-.42-.17-1.15,1.23.69-.75-1.11-1,.27-.31-.8.31-.91ZM66,314.48l1.32,1,.72-.25,1.1.91-.27.63-.83.14.75.34.29.7,1-1.81,1.46,0-.6.59.32.42-.9.49.18,1-1.82-.11-.09-.52-.83-.32-.75,1-1.18,0-.18,1-1-.18-.29-.63,1.19-.2,0-.56-.86-.63.29-.84-1,.56-.49-.8,1.21-.42L64.17,315l.6-.45Z"/></g></g></svg>