<svg xmlns="http://www.w3.org/2000/svg" viewBox="0 0 181.33 182.38"><defs><style>.cls-1{fill:#fe7901;}</style></defs><title>경기도</title><g id="Layer_2" data-name="Layer 2"><g id="Layer_1-2" data-name="Layer 1"><path id="KR-11" class="cls-1" d="M73.39,95.64,74,96h0l4.18,4.19-.11,2,.6.58.35,3.4.63.57.61-.1,2.65-1.38,2.82,6.26.58.14,2-.79,1.32.54,2.63-.11,4.58-2.53,3.37-.33v1.88l.75,1.34,4-2.28,3.28-.29,1.85-1.73-.5-.62.47-.64.69.18.69-.51,1.41-1.88v-.65l-1.29-.55.43-2.74,1.09-1.09,1.94-.69.48-.58-.72-2.64-.86-1.27-1.27.91-2.71.65-1.29.83-1.3.18-.4-.65,0-1.3,1.58-4.57-1.21-1.88-.09-2-1-1.26-.11-5-1-1.2-1.3-.22-2.88.37-2.56-.58-1,1.08L96,79.59l-.6.58,0,1.31L94.2,82.64l-.09,3.3-1.21.87-5.65.43-.92,1.16-.17,3.4-.69.41-4,1.77-2.65-1.27-1.53-1.88-1.39-.36L74.8,93.18l-1.27,1.09Z"/><path id="KR-28" class="cls-1" d="M52,92.12l2.7-2.18,1.85-.8.68-1.73L58.87,86l2.28.21,8.18,6.62h0l4.2,1.42-.14,1.37L74,96h0l-3.89,5h0l.14,4.41,3.64,3.18h0l0,1.3-.78.87,0,.73h0l.29,1.26-1,.9h0l-.61.47-.31,1.18h0l-.61-.18-.15-.21-1.44-.26.52-2-.75-.58-.29.07.67.54-.15.83-.66.4-.32-2.42-.34-.15,0,2.5.46.25,0,.54-2.17,2.5-3.92-.55-4,5.09-3.52,0h-.14l-1.39.11L52.89,123l-1.1,0,.93-.29.57-2h2.39l-.49.91h3.12l3.95-5-1.47-.47-3-3-1-4.7L56.23,111l-1.61-.11.4-.9-.54-.8.74-.1-.51-.44.11-.61-.89,1.41-1.07-.11-.26-.43.4-1.52-.23-1,.67,0-.38-.91.87-1.66,3.28-1.3,1.36.43-.84-.59-.17-1.26-1.15,1.09-1.5.14.06-1.44-.81-.44-.32-.76,1.07.11-.18-1.37H54.1L54,97.51h-.57L53.38,97l.75-.32.06-1.56-2.88,1.12-.18.69-.43-.44-.66.26L47.5,99l2.42-2.29,4.3-1.77-.93-1.16-.8-.14ZM23.46,93.89l1.94,1,.08.4.95-.29.58,1.7,1,.51,3.26-.47L31,98.31l-2.25-.47-2.05.69-.05-.62h-.38l-1.12,1,.4-2.31-2.13-2.1ZM45,97.37l.84.8,0,.5,3.92,1.09.61,1,.92.43.46,2-2.48,1.55-1.53-.07-.66-.65L46,105.44l-2.33,1-1.9,2.45-4.41,3.22-1.7-.22-1.44.83-.06-.57.63-.36-.2-1.23-1-.73-1.35.91,1-1-.52-.8-.81.25v.87l-.69-.58-.26.83-.57-.79-1.21-.11.95-.69-.52-.18.14-1-.6.07-.72-.79-.21-.76.46-.76,1.82,0,4.32-3.07,6.11-.29,1.47-1,.75-3ZM34.21,113.46l.12.9.86.29.87,1.41,1.21.58-.09.65-.69-.07.64.47-.78.54V119l-1.73.47-1-1,.41-1.38-.29-.75L32.4,116l.89-1.59.09-1.08Z"/><path id="KR-41" class="cls-1" d="M14.47,68.59,12.57,67l-.09-.66.92-.54.75-1.27L14,63.18l.41-1.2,1.72-1.63.93.32,2-.32,3.34,1.92h1.7l.92-.73,1.18,1.31L24.3,65.9l-2.16,1.31-2.88-.36-.87.58-1.58.07-1.16,1.56Zm11.65,64-.41.57-.37-.29-.23.47-1.53-1-.49.22L21.42,132l-.09-.65-.89.18.23.83-.52.36,1.38,1.33.12-.47.54.54,1-.14.24.86.2-.46.46,0,.46.61,2.28-.57.8-1.33-.92-.58ZM17.58,84.4l0-1.08.55-1-.29-.55-1.68.08-.74-.44-1,.25-.09.66L15.8,84l2,1.12.61.83.37-.61-.51-.55ZM5,134.65,4.73,134l-1,.69-.09-1.48-.43,0-.32-1.63-.66-.46-.55.28.2.51L.58,134.65.66,137,0,138l1.38-.22-.23-.5.44-.36.43,1.4,1.27-.39.14.79-.72.36.4.44L5,139.16l.67.25.14-.58,1,.11.06-.61,1.7-1.44-.32-.33Zm6.74-57.32-.4-.14L10,78.86l-1.15-.4-1.48.43.12.55,1.3.8L10,79.69l1,.76-.09.87.52-.21,1.53.58-.32-.84.64-.76-1.18-1.16ZM102.94.63,96.82,5.32l-1.1,2L91.44,11.7H88.36L83.22,9.64l-2.74,1.72L77.4,13.41l-3.08,3.08L70.55,22l2.06,1,2,4.11,6.93.32,3.69,2.08L86,32.94l-1.37,1L84.25,36l-2.4-.69H78.77l-.34,4.11-1.71,1,.34,2.74,2,1-.34,7.19-2.4,1.37-1.71-2.74L73,48.69l1.37-4.79-2.15-2.71-2.64.08-.35,3L67.13,46.3l-3.82-3.67-.81.11-.3.93,1.28,4.45L63,50.18l3.83.91,1.37,1,3.77,5.48-7.19,2H61.62l-1.06,5-3.3.2L56,65.41l-2.15,2.13L50,67,47.76,65.2l-.66,1.28-1.18.11-.75.77,1.21,1.92-1,4.64,1.19,2,.08,1.64-.63,1.77,1.27.58-.06,1.38-.78.51,1.85,3.33,1.06,3.62L52,92.12h0l2.69-2.18,1.86-.8.68-1.73L58.87,86l2.28.21,8.18,6.62h0l4.2,1.42h0l1.27-1.09,1.12-2.71,1.38.36,1.53,1.88L81.48,94l4-1.78.69-.4.18-3.4.92-1.16,5.65-.43,1.21-.87.08-3.3,1.21-1.16,0-1.31.61-.58L97.36,79l1-1.09,2.57.58,2.88-.36,1.29.22,1,1.19.12,5,1,1.27.09,2,1.21,1.88-1.59,4.56,0,1.31.41.65,1.29-.18,1.3-.83,2.71-.66,1.27-.9.86,1.27.72,2.64-.49.58-1.93.69L112,99.91l-.44,2.75,1.3.54v.65l-1.41,1.88-.7.51-.69-.18-.46.65.49.62-1.84,1.73-3.29.29-4,2.28-.75-1.34v-1.88l-3.37.33-4.59,2.53-2.62.11-1.33-.55-2,.8-.57-.15-2.83-6.25-2.65,1.37-.6.11-.64-.58-.34-3.4-.61-.58.12-2L74,96h0l-3.89,5h0l.14,4.42,3.63,3.18h0l0,1.3-.78.87,0,.73h0l.29,1.26-1,.9h0l-.61.47-.32,1.18h.89l.46.65-4.35-.83-1,1.16.9.68-.44,1.67-2.16,1.8-.83-.07-.52.76-1.65.39-.28,1,.57.14,0,.47L54.88,126l-3.23,2.45-1-.29.52,1.08-1.41,1.52-.64,0,0-.72-2.5-.76,2.33,2.42.35,1.62.49.4-.38,2.27-.52.47-1.21,0-.26.79.12.72,1.21.07.26.83H47.64l.32.94-.67.18-.51,1,.43.28.6-1,.78-.07,1.13,1.73.77-.83-.23-.68.7-1.48.77-.72,1,.75.64-.07.55.94.4-.54.78.61-.23-1.37,1.09-2.27.29,1.8,2.19,1.37-.55.76,0,1.12.63.68.4-.93-.2-.8.66-.83-.37-1.8-2.88-1.48-.26-1.58-.58-.47.14-.9-1-.51-1.39.08-1.06-1.48-1.27-.72,1.21-1.27-.08-.72,3.51-2.45,7.12-2.45,1.1-.08,3.86,3.07,5.33,2,3.4-.44,1.27,2.31,1.15.47.61.83,1.38-.47-1,.9-.14,1.05-1.73-2.2-.52.39-1.59-.93.18-1-1,.36-.38.86.84.62.2.79-1.21-.61-.9.5L74.1,134l-1,.94.72.22-.78.21.35.54-2,2.92-.37-.65-1.07-.32.64-.76-.52-.72-.15-2.6-2.91.94-.37-1.19-1,.15-2.94-1-1,1.23.17.79-1.87.4.43,1.91.57-.22.44.87-1,.86,0,1.05,1.07,1.69-1.56,0-1.27,1.62,1.3,2.85-1.18,1,1.09,0,.55-.64.29.43,1.41-.43.12.72.86-.18-1.47,2-1,.33.35.43.63-.18.43.65.38,1.36-.58.58.92.86.44-1.76,1-.29.52-1,.6,0,.09.36,1.5-1.12,2.27-3.74,2.8.25.4-.65.49,0L73.5,143l0,1.33.75.22-.23.79.55.29-2.37,1.44,5.13.07.06.4L75,147.8l1,.61,0,.5-.9-.39-.37.9-1.13.54-1.15-.79-2.22,2.12-.2,1,.78,2-.52,4.78-.41.5-.25,0-1,1.58,0,.9.4.86,3.84,0,.89.39.32,2.3-.55-.21-.92.68,0,.9.61.57,2-.21,1.7.54,1.64,2.84.32,1.11-.72-.39.54,1,2.11.86.49,2.05,2.13-.36L85,176l1,5h0l1.08-.06.91-1.33,1.8-.89L98,180.64,99,180h1l3.47-1.28,3.31-2.27,2.83-.1,3.28,1.57,1.47,2,2.14,1.74,5.59.77h0l3-.25h0l1.67-1h0l1.71-.39h0l.77-.48h0l1.87-1.36,2.43.15,1-1.49,1-.43.18-2.32-.33-1.19h0l2.18-1.75h0l3.4-1.55-.2-.49,1-1.26.06-1.14,2.57-2.82.88,1.31,1.62,0-.3,2.27,1.76-3.54,4.72.86,4.46-4.11,2.73-.35.69-8.56h1.71l1.72,2.06h2l2.92-7.3,2.91-.64h0l.68-8.16-.69-3.77,1.72-1.37-.35-8.22,3.77-8.9.34-4.46-2.14-.78-.86-2.61,3-3.44.4-1,2.27-.77.87-2.39-1.4-1.7-.42-1.49-2.46.19-.93-.87-2.51-.69L169.67,96,164.94,92,162,91.63,160,90l-2.53-1.12-4,1.54-1.41-1-1.49-2.13,1.92-3.85.34-4.82-1.71.61-.82-.15-.72.7-.69-.17.13-2.22,2.37-2L152,74l-1.45-3.84v-1l.9-1.15-.22-1.92-.71-1.31.65-1.68,2.48-.82,2-2.27,2.88-.62.76-.55,1.1-4.36-.9-4.43-1.59-1.74-2.21-.43-2.4-1.13-.09-3-1-.66-3.53.38-3.4-1.68-1.38-1.75-.33-1.57-.44-8.25-1.56-2.16-.81-.1-1.34,1.24-.77-1.05-1.53-.65-1.63.22-2.6.89-1.34,1.54L131,29.9l-2.1-2.39-1.49-.24L126.07,26l-.34-2.16.59-1.23.28-2.45,1.2-1-2.17-1-.62,0-1.55,1.44-1.85,2.63-2.67.17-1.8-.91-.56-1L116.7,18l-1.09.34-.19-1.18.68-2-1.71-1.37-1-5.83h-5.14v-2l1.37-1L104.39,0ZM30.67,77.84,29.49,77l0-.54L26.78,76l-2.31-1.82,0-2.54,1.13-2.28-1-.62L21,70.22,20.93,74l-.26.44-1.13-.26-.28.44,2,1.88,3,1.6,1.12,1.59-.29,2.29,1.39.69-.2.47h.8l-.23-.84,3.35-2.17Zm14.9,4,.23-.61.84-.22,0-.51-1.24-.51L45,79l.87-3.49-1-.83-.32-1.05.14-1.35,1.07-1.56L46,69.5l-1.5-1.86.17-1.12-.55-1.38-5-3.23-2.37-3-1.09-.26-.64.87-2.59.19-.92,2.21-3.84,2.07.67,3.78-.46,2.94L28.25,75l3.29.87.43.62-.26.87,1.5,1.45.49,2.1-.18,1.63-.77,1-3.49.66.89.57.38,1.71-.78.5.14.37.46-.07,1.39,1.3,1.38.22.37.68,5.88.4,0-1.12,1,.47.64-1,2.42,1.08,1-.07.89-1.81,1.5-.44.06-.61ZM42.2,130l-1,.14-.66-.82-1.7.61-.44-.15-.37.65.17.76-1.7-.14-.17,1.37-.61.29.49.32.41,1.84-.55.18.17,1.88,2.08,0,.34.43-.29.58.7-.07.49-.8,1-.43-.29-.94,1.67-.1V135l-.58.15,0-.58-.72-.47.81-.32L42,134l-.23-.83,1.09.79.46-.47.29-1.69-.52-1Z"/></g></g></svg>