<svg xmlns="http://www.w3.org/2000/svg" viewBox="0 0 84.31 45.9"><defs><style>.cls-1{fill:#fe7901;}</style></defs><title>제주도</title><g id="Layer_2" data-name="Layer 2"><g id="Layer_1-2" data-name="Layer 1"><path id="KR-49" class="cls-1" d="M82.46,4.92l.75.86-.49.66.87-.35.72.24-.58.59.43,1.27-.6,1.34L81.28,9,80.79,7.4l.87-2.17ZM77.39,21.53l-1.59.58L73.93,24l-.52,2.22L70.7,29l.17,1.58-1.44,1.62-2.33.51-3.23-.62-3.43,3.57-2.65.17L53.61,37l-.84-.45-2.22.35-2.94,2.36-.08.86-2,.76-.95-.41-.15-.59-1.87-.07L42,41.2l-1.61-1L38,40.45l-1.75.89-4.07.92L31,40.41l-.8-.17-2.57.69-1.47-1.17-.58.07-3.63,1.65-4.64-1.24-3.4,2.23,0,3.26-.61.17L13,45.21l-.58,0-1,.68-1-.65L10.63,44l-.92,0L7.38,40.79,4.09,39.38,2,37.67l-2-3.3.63-3.63-.63-2,.46-.86L2,27.13l0-1.55,3-1.95,1.3-2,1.33.21L10,19.09,10.52,16l4.61-1.86.09-1.86.4-.31,2.14,0,2.07-.58.26-.59,1.44.07,1.82-1.48.52,0,.78.86,1.26-1L30.47,8l1.38-1.1,1.47-.11.38-.89.8-.45,2.22.66,1.38-.25,1.27-.82,1.07.48,1.38-.76L44.1,5,45,3.68,49,3.41l.11-.9,1.1-1.31,2.07,1.66,1-.31.25-.93,1,.38L58.63.62,62.11,1l.26-1,3.32.65.34.59,2-.66,1,.11.11,1.55L70.5,4l1.18.11.75.93,1.1-.69L76,4.65l1.15.82-.46,1.45h1.12l.38,1L78,9.4l-.9.1-.2.82,2,1.59,1.47-.55.14,1,1,.89-.52.62-1.09-.72L79,14.45l-.11,1.14,1.64,1.2-.81,1L79,17.2l.29-.51-.95-.38Z"/></g></g></svg>