<svg xmlns="http://www.w3.org/2000/svg" viewBox="0 0 252.25 169.96"><defs><style>.cls-1{fill:#fe7901;}</style></defs><title>전라도</title><g id="Layer_2" data-name="Layer 2"><g id="Layer_1-2" data-name="Layer 1"><path id="KR-29" class="cls-1" d="M165.73,31.18l-2.13-2.57-2-.95-2.68-.1-2.67,1.05L154,29.76l-2.2,2.29-1.63.1-2.29-.77-1.62-1.53-.67-2.39-2.39-.09-2.3,5.83-2.58-.09-1.91,2.29-1.24,5.26.47,4.49,7.94,1.15,2,2.48,2.1,4.21h4.11l3.73-2.2h4.2l1.63-1.15,3.44.67,3.73-2.58,1.53-2,.86-1.81.09-2.87,1-2V37.5l-2.29-1-2.87-.29Z"/><path id="KR-46" class="cls-1" d="M73.12,148.22l.41,1.32-.66-.87-1.36-.42-.75,1.32-.49-.45.26-1.32-.46.38-.66-.31.52,1.15-.49.59-.52-1.22-.52.24-.61-.52-.46.39-1.12-.32.49-.62-.29-.59-1,.24.35-.94.37-.27.44.31.72-.84-1.13-.34.17-.42.7.42.43-.42-.46-.42,1-.34,1.41,1.84,2.8-.42.86-.55-.23,1.73.78,1.22Zm30.21-26-.81-.52.06-.46.92-.28-.52-1.25-1-.35L101.2,118l-.87-.14.2-.59-.86-.67-.09-.69-1,.35.69-1.22-1.58.38-.17.73-.93-.24-1.47-1.67.84-.74-.81-1.18-1.09-.1v-.56l-3.49-1.36-1.76,0-.32.52.61.38-.43,1.81,1.09.25v.35l-1.64,3.2-.61,0-.31-.7-.09,1.32-.69-.21-.67.67L87,119.22l-2.08.17-.4,1.15.8.91L84,122l-.54-.52,0-.77.52-1-.49-.24-1.73,2.4.23.42-.41.87-2.45.87-.57.84-2.74,1.46.23.76.81.18v.94l-.72-.63-1.24.49-1.18,1.15.14.69L73,131.54l3,5h1l.43-.91,1.16,0,.32.87-1.13.48.43.66-1,1.36h1.81l-.14-.8.84-.25,1,1.78,1.45-.25,1,.32.12-.56,2.79-.52-.72-1.39,1.36.59,1-1,.66.73,1-1.32,1.79.14.54-.66-.89-.35.49-1.32,1.27.11,0,.76h.4l1.73-.9-.89-1.08,1-.42.11.66.78.11-.4-1.32,1.26.94-.26-2L97.73,133l-.66.17.26.63.4.38,1-.35,0-1.84,1.29-1,.55-1.53,1.24-1L101,126.7l.61-.91.66,0,.17-.91-1.32-.38,0-.94,1.65-.45.63.94.35-.45-.58-1.08ZM57.59,93.52l.23-.55L56.7,92.2l.14-.39,1,.21-1.38-2.09.05-1.61,1.24.07.23-.53,3.17.25.21-.73.69.21.37-1.47,1.27-.18.23-1.6-.52-1.51-.37-.1-.2.49-.7-.25,0,.53-.9-.31-.49.45.06.73-.75.32.11.59L58.77,85l.23.7-1.33.8-1.32.28-1.07-.17L55.22,86l-1.12-.14-.49.35-.32-.35-.17,1,.63.28-.89.42-.15-.6-.43.84.64.77-.49.14v1.15l.43-.17-.78,1.19,0,1.29.66-.18-.14.73.8.18.35.77,1.47.49L56,94Zm85.31,52.37.52-.1.52-1-.69-.83-1.59,0,0-1.11-1.23-1.6,0-1-.75-.45.09-3.1-1.18-1.32-.72-.11-1.1-1.31-1.44-.11-.46-.49-3.4,1.19-1.07,1-.29,1,.64,1.29-.41.45.41,2.22-.41.7.78.73-.55,1,2.17.45.57,1,.72.1.49.87-.37.42,1.7,1.56,1.7-.66,2.74,1.39-.55-1.94.35-.35,1.29,1.63,1.36-.1.83.69.87,0-.52-1-.84-.42ZM65.2,96.49l-.35-.66L63.9,96l-1.61-1.57-1.39-.35-.51-.8-.06-1.54-.49-.28-.18,2-1.35-.07.29,1.53-.41.66L57.13,95l.29-.67-2.31.49L54.88,98l.66,1.81.81-.31-.09-.63.52.07.32.73-.37.49.92.56v-.53l.8.11,0-.73.58,0,.32.49-.58.66.14.56,1.07.35,1.64-.73,0-1.19,1.64-1.12.18-1.15,1.18.32.14-1.33ZM134.26,162l.6-.8-1.79-1.73-1.9-.63-.72,1.7-1-.1.87.38-.64.45.64.45.49-.52.63,1.49-1.24,1-.52,1.39-.52-.11-.26.56.61.52-.4.69.72.56.05,1.25,1.16-1.11.34.24-.14,1.77,1.1.51,1-1.14-.4-.73.66-.62-.4-1.52.32-.25.89.66.29-1.18-.46-.31-1,.28-.06-1.56-1.27-.42.15-.93Zm-6.55-5-.86-.45,0-.66-1.5-.38-.84.38-.69-.59-.57.8-.52-1.53-1.56.07.78.52.06.59.52.07v.66l-1,.1-.29.84.34.24L122,157l.4.35-.52.69-.72,0,.61.35-.66.66.49.38-1,.45,1.75.45-.05,1.29,2.82.59-1.47-1.7.35-.42,1.84-.14-.11,1,1.78.21.29-.25-.26-.8-1.09-1.31h2l.28-.7-.63-.31Zm-.6,6.69-.41-.59-2.53-.45-.72.49,0,.62-.43-.27-.11-.94-1.53.31,0-.8-1.67-1L118,162.44l-.63,0,0,.62-1.19.66.52.94-.6.8.57.31-.57.65.92,2.15.69-.48.84.55,3.63-1.76.43-1.15,1.07,0-.26-.56.72-.45-.2-.69.86.17.38-.83,1.26,2.22.06-1.84,1.36,1.53.78-1-.26-1ZM65.77,110l-.48.59.11.8.66.56-.29,1.29,1.07-.14-.2-.94.63.11.18-.59.66,1.07.84-.62.66.59-.09-.38.58-.14-.2-.53.6-.76L70,109.71l-.78.69.26-2.19-1.58.49-.35-.39.23-.66-.52.31L67,107.3l0-1,.72-.38.12-.94-1.15.27.17-.87-.52.39-1-.42-.49.52.67,1.57-.61,1.43.35.63-.32.73.89-.49.66.63-.28.77ZM92.23,75.6l-.37-1.12L91.6,76l-.58.53-2.27-.43-.81-.56-.52,2,1.35.1,1.33.91,1,.11,1.73-2.07,1.47.07.38.46,1.61-.14.4.94.49-.66.93,0,.69.81-.06.59.78-.32.11,1-.52.1-.26.84-1.09.25.49.73,1.93.6.2-1,.35.45,1.29-.7-.49-2.13.87-.17L102,76.51l-1.18.49-.46-.84L101,76l-.12-.35-2.13-.11-1.3.46L96.39,75l1.12-.53-1.18-.8.4-.52.87.31.05-1.36.75.59.41-.8.63-.18.63,1,.23-.39,0-1.08-1.16-.39-.43-1-1.35-.31-.32.59-.81-.07-.72-1.54-.72-.28L93,69.41l-.14.35,1.44,1.08,1,1.82-1.13.7-.72-.73-.57.06-.23,1.79.78.7-.32.63ZM76.06,94.33,77,92.86l1.55-.14-.34.8.89.46L79.23,96l.84-.49,1.24.63,1-.77-.17-1.33.49-.63-.7-2.65-1.38-.87.09-1-2,.74-1.1-.84-.78-1.61-1.9.59-2-1,.06,1-.43.35H72v-.63l-.89.31-.7-.27.29.45,1.1.18.49,1.57-.78.56-.44,1.46.26.32,1.16-1.19,1.09-.14.12,1.12.72-.32L74,93.66l1.3-.17-.14.45Zm8.56,9.07L83,104l-.2-.77.55-.9-.66-.81-.7.14v-.87l-1.09-.07-.23-.73L80,99.74l-1.06.34-.69,1.71-.87-.62-.34,1-1.3.11.29,1.11,1.09-.69.64.8-.49,1.32-.67.46L77,106l-.4.84.69.28.87-.7,1.38.07-.06-.73.58-.32h1.06l.24.67.54,0,.7-1.15,1.67-.17.4-.46ZM81,48,80.5,50l.64-.87.14.77,1.07-.32-.61.84,2.08.42,0-.52.49-.14.92,1.15,2-.17,1.07.66-.46,1.82,1,.21,1,1.76.92.38.63-.24,1.07-2.11-1.27-.8-.43-2.66-1.56-1.09,0-1.33.6-1.68-.58-.71-1.52,1-.44-1.15L86.3,45l-1.36.63.12-.73-1.21-.63-.41.38-.75-.14-.34.77-.92-.17L80.19,46,80.1,47.2ZM72.26,76.16l-.69,1-1.73.31,1.84,2.8,1.5,1.43.58,1.12L73.59,84,76,83.64l.54-1.54-1-1.81.75-.6.12-.66,1.24.56,1.76-1.37L78.28,77l-.78,0,0-.87.61-.35,1.41.41.67-.87-.44-.56-.49.25-.6-1.68-.52.84-.75-.66-.78.13-.89-.45-.64.42.61.87-.61.49.18.6,1,.8-.55,1-2.34-.7L73,76Zm1.67-17.85.78.56,1.58,0,.26-.53,1-.14.84.49,2,0,.78-1.26-.57-.21.49-.6-.41-.46L77.62,55l-.63,0-.26,1.08-1-.07-.72,1.68-.61-.35ZM62,75.14l-.58.42.67.21.48-.38.64.49.4-.56,1.07.87.52-.66,1.93.63,1.15,2,.41-.42-.61-1.54.84-.25.23.84,1.58-.49-.58-.63.21-.24,2.16.1L71.85,74,74,73l.06-.63-1.13-.14-.51-.88,1.67-1.54-1.56-.24-.09-.46.72-.31.15-.56-1.36.31L71.57,68,72,67.1l-2.31-.95.43,2.38-.63,1-1.12.21-.46-1.22-.61,0,.35.53-.46.77L66,70.07l-.77-.56-.06,1-1,1.79-.58.38-.54-.25.31.85-.57.8-1.1-.32-1.24.35,0,.53,1.21-.35Zm6.86-24.4,1-.42-.06,1,.72.13L70,49.94l1.73-.28-.29,1.26.29.49.89.07.12.42.89-.14.09.63.6.07,0-.56h.52l-.44-1.16,1.68.11-.75-.78-.15-.91.67.35.69-.59-.18-.53-1.46-.56L74.54,47l.34-1.65.61-.42.69.39L76,43.69l.55-1.79.4-.59,1.9-.22.29-.7,1.61-.31-1.41-.25-3,.81-.64-.32.26.6-.37.6-3.09,3.26L71,45.52l-2-.11.2,1.19-1,1.3,1.73,1-.35.94-1.85-.28v.6l.55-.18ZM7.12,96.7l-.92.42-.35,1.11H5.1l-.72-.8,1.41-1.15-2.73.14-.67.49.06,1.36L1.27,99.39l0,1.36-1.07.73.26.8.93.31-.06.35-1.3.31,1,1.82,1.73.62-.09-1.84.66-.18,0-.48,1.1-.11-.61-1.74H5.22l.34-.32.38-.21.26-2.26L7.26,98l.38.63.6-.77L8,97l-.55.07Zm152.12,63.73-.89.56-.43-.18.46-.38.09-.94-.87-1,.87-.48-.09-.83-1.73,0-.35-.62-.74.07-.32.62-1,.24-.2.91-1.3.34.52.49-1,1.21.52,1.08-.87-.18-.23.56.38.76.49-.56.4.39-1.09,1,.63.21-.23.55.37.76.35-1.42.95-.52,1.3,1.39-.09.66,2-.77.87.66,1.12-1,.66-2.78Zm87.91-88.29.95.66.92,0L248.88,69,247,67.13l-3-.07.29-1.89-.87-.7-1.58,1.72-.15.7-1.09.42.06,2.2,5.88,1.33.54.77.18-2.06-.49-.32v-.59l1-.39.87,1.69.17,2.61-1.38-.34Zm-.26,37.46.55.7,1.1-.17,1,.59,1.7-.66.17-1-2-1.35.44-.46-.09-1.92.92-.38-.2-3.17.87-.32-.06-.48-1.13.14-.2-.56.81-.25-.64-.07-.25-.69-.81.34-.87-1.36.49-.76-.17-1.3-.49-.17-.92.56-.72-1.19.63-.83.92.73.49-.88.2.49-.51.7.89-.14.11.49h.44l-.26-2.2-4.44-2.16-.52,0-.29.67.52.17.52,1.64,1.24.17-.46,2,.26.84,1.58.76-2,.35-.57.8,0,.81-1.93,1.6-.58,0-.63,1.57.72,1L241.25,106l1,1,1.81.24,0,.84,1.3,1.54Zm-6.65-16.36L238.79,92l-.86-.17.37-.74-1.06-1-.87-.14.06-.81-.66.18.2,1.12-.87.42-1.15,3-.46-.07.78,1.58-1.7-.6v-.91l-.38.24-.08,1.19-.29-.28-.52.28.06.56,1.38.84-.46,1.11.78.53.75-.14-.78.59-.92-.21v.35l.78.39.66,2-.72.56.69.73.34-.38.41.21-.23.87-1.1.73,1.13,0,.46,1.25-.9.18-.26-.84-1,.35.2-.39-1.27-1.39-2.65-1.08-1.33.42.78,2.4-.29,0-1.58-3-.64-.63-.6.07-.23-.94.37-.6.69,0,.23-.66-1.21-.39.06-1.74.69-.07-.31-.32.57-.45,1.47.21.18-.35-.55-.31-.87.24v-.91l-1.12,1,.4-1.67-.83.42-.06-.32.26-.8,1.35-.59-.26-1,.7.53,1.15-.63-.09-.77.61,0-.15-.77,2.11.07-1.21-.77-.78.11.69-.91-.75-1.47-.37,1-.72.21L227,87l-1.42-.42,1.33-.28.17-.52-.43,0-.23-1-.84-.59-.14-1.44-1.21-.38-.23.59-.66,0L222,82.49l.2-1.78,1.27-1.09.49-1.29-1.07.14-.75-.42-.86-4.41-1.35.67-1.45.11.21,3.35-.67.84L216,78l-.57.52-1.1.11-.17.52-.72-.14-.06-1.54-.46,0-.46,1.5-3.69,1.47L207.38,79l-2.57-.1-.05.38.83.46,1.67.45,1,1.61.58-.32,1.81.56,1-.45.29.24-1.64,1.44-1.76.77-.78,1.18-.09,1-2.13-.11.35.35,2.45.14,1,.87-.44,1.36-1.81.88-.81,1.18,1.7,3.74.87.7.43-.18.57.42v.6l1.74,1,.22,1,.67.42-.49.77.92-.49,1.1.52-.26,1.5,1.32-.9-.06.9,1,.11-.52-1.19,1.62-.14,0,.94-.46.07.06,1.19,1.69.56,0,1-1.3-.74-.38.91-.6-.14-.4-.91-.52.49.92,1,3,.66-.28.77.46.73-.2.56,1,1.26,0,1.36L218.18,111l-.05,1.08-.61-.59-.52-.14-.4.63-1.16-.77v-1.32l-.43-.07-.06,1-1.29.88-1.1-.63v-.81l-1.61.7-.4-.25.14-.52-.75-.25-1.56.6-2.79,0,0,.73,2.6-.2.26,1,1.44-.87-.43,1.5-.69.62-1.73-.2-.21,1.18,2.17-.63,1.18.49,1.29-.07-.69.63,1.5-.35.69.63-.66.83.46,1-.69-.32-.26.84-.43,0,.8,1.32-.31.31.2.77-1.38-.91-.9-.07-.52.7.41.14-.26,1h-1.16l-.4-.66-1.15.8,1.24,1.56-.26,1-.32-.41-.52.38-.14-.49-.49.94-.44-.07-.23-.8-1.24-.62-.51,1.77-.35-.07.2-.69-.55,0-1.18,1-.63-.1,1.24,1.11-.41.49-.92-.8-.52.52,1.36.83v.42l.49-.21.28,1.12-1.23.9-1.1-.07-.75-1-.57.14,0-.69,1.21,0-.77-1.08-.44.49-.11-.73-.75.2.37-.93-.89,0-.64-.83-1.81-.49.49-1.43,1.06-.69-3-2.89-1.07,0,0,.8-1.29-.42.23-.87-1.27-1.08-.72-.07-.64-1.15.09,2.86-1-.52-.43-.94-1.24.07-.12-.49-.86,1-.06.9L185,118l-3.22.39-1.62-.87.09-1.36-1-.7.52-2.12,1.24-1.22.63,0-.2-.7,1.21-.76-.26-.73.64-1.33.22.87.81.32,1.36-.42-.41-1,.46-.28v-2.65l2.8-2.79,2.94-.73.46-2.72,1.21-1.19-.78-.94.35-.87,1.27-.6,1.18-1.57.75.59.46-.94.6.07-.08,2.48.55,0,.08.53-.8,2.65.83.87,2.94.28.72-1.25-.4-.91,1-1.15.51-2.1,1.24-.38-.11-.56-1.15,0-.7-4.58L200,89.54l-.86.42-1.24,2.41-.49-.66-1.68-.7-.83,1.26-.87-.84-1-2.8-1.7.39-1.9,2.37L189,93.87l-.86,1.5-.78.32L186.59,97l-4.24.14L181.6,96l-.69-.25-1.5,1.36-.49,1.64-1.24,1L174.45,101l-.46.52.18.77-.69.31-1,1.64-.95-.07-2.08,1.47-3.66-.42-2.19.35.92.59.72-.49,1.7.18,0,1,1.53.84,0,.38-1.09.11.14.84-.63.48-.23,1.5-1.19,1,1,.76,1.79-.35-.14,1.64-.29.31-.55-1-.92.14,0,2.72-1.7-.42-1.27,1.43.26.8,1.55,1.43,0,.55h-1l-.4,1.71,1.3.9.34,1.4-.8.31-.41-.35-1,.94-1.53-1.74-.63.91.4,1.73.66.81-.92,1.14-1.15,0-.67-.84-5.18-.2,1.67,2.71-.17,1.6-1.33-2-1.7-.56-1.15-1.18-.7-.21-.89.66-1.21-.07-1.41-1,.32-1.53-2.25-.07.08-.94,1-.42-.81-3.44L146,120l-.52-.35.52-1.74-.11-1.74.75-.84H146l-.14-.55-.17-1,.63-.91-1-1.11.26-1.29-1.13-1,.41-.42-.41-2.65.55-1.74.72-.67-.34-.2-.75,2.16-.95.84-.67,10.34.61.7-1.07.28-.09.45.29,2.44.46.45-.72.35.12.59-.75-.1-1.44.87.86,1.7-2.42,3.62-.6-.42-.93.87-1.06-.14-1.88,1.78-.69-.21.4.88-.49.16-.89-.9-.66.76-.84-.24-.57,1.63-1.07-.27-.61,1.14-.6-.62-.66.87.54.62-1,1.29.31.83.61,0-.06,2.57-1.87,1.18.66.56-.87,1.11.32.84-.23,1.21.49.56-.89.34-1.1-1-2.71-.31L120.3,146l-1.58.28-.38,1.11-1-.35.29-2.43L117,144l1.52-1.84-.66-1.25v-2.12l-1.58-.7-.61.8h-.92l-1.24,1.25-.72.18v-.7l-.66-.49-.09-.59.43-.13,1,.93.23-.38-.46-.73,1.07.11-.93-.73.41-.77-.81-.14-.06-.8,2.63-.45-1.24-1.74.31-.52-.26-.42,1.68.53.17.48,1.18-1.81-.81-1.39.55-.94-.52-.76-1.24,1-.52-.42-.89.1v1.08l-.78-.24-.72-1.43-1.38-1-.12-.42,1-.52.66.84.58-.32-.84-.8-.05-.66.69-.38-.46-.77-.69.28-.81-1,0-.63,1.06-.17-1-2.26,1.47-.91-.86-1.5-2.11-.17.15-.63,1.12-.21,1.16-1-.35-.9-1.07.21-.08.55-1.1-.07,0-1.74-2.5-.87.23,1.33-1.65.27,0,1-1.58.77-.87-.88,1-1.21v-1.36l-2.42-.11-3.14-1.56-2.19.76-1-1.25,1-1.12-3.49-1.29.58-1.08-.49-.66.34-1.12-.31-.38,1.35-1.12-.46-.62-.49.69-1.3-.31-1.29-1.26-.44-3.07.44-.69-.49-.84L91,98l-.49-1.18.32-1.51.63.49.75-1.22V92.68L93.41,89l1.45-.59L96,89.44l-.35.8,1.39-.14-.32.84,1,.56.4,2.16.92.28,1,1.26,0,.7-1.73.73-.26,2.13.43.91-.77,1.08.23.63,2.56.94-.11,3.17,1.44.7.28,2,.47-1.43.66-.21,2.22,1.5.78-.21-.15.73,4.56,2.44-.2-1,3.17-1.61.49-1.25-.09-.59h-.87l-.72.69-.6-.31-.89.7-.49-3.18h-.58l-.72,1.29-.89-2.68-1.16.28.55-2-.81-.07.06-.91-.95,0-.35,1.36-.66-.2-.86,1.21-1.19-1,1.82-2.16-.2-2.06L104,97l.67.1.57.91.52-.46-.2-.83-.63-.25,0-.87-1.15-.21.06-.59.72.34.37-.8,1.71,2.34-.12,1,.4.52L108,97l.64-.07.14-.84.55.66.6-1,1.24.74-.17.69-1.44,1-1.21,2.27,1.23,1.39,1.07-.41,0,1,1,.14.81,1.19,4.32.55,1.73,1.5,1.1-1.46-1.44-.42-.26-1.36.4-.17,2.42.24.35,1,3.57,1.54,3.4.31.49-.49-1-.84-2.1-.1-1.56-1.54-1.76-.9-.4-1.5.66-1.43-1.38-.42-1.24.28-1.3-3.21-2.94-3.49-1-.43-1.68.14-.8.21-.78,1-.55-.28-.26-1.54-1.38,0-.49.55-.26-.73-1,.28-.49-.73-.72.42-.06.66-1.21-.14.2.7-.86.38-2.57-.94-.06-.52,1.85-1.19-.29-.84.61-.52-.55-.35,1.27-.49-.09-1.47-2.19.14-.78-2.38,1-1.15v-.87l.52-.73.66.21.21-1,.37-.49.43.14.15-.76.86-.67,1.12-.1-.77-.6-.15-2.17-.83-.42.69-1.43-.81-.28-.6-.11.49-1.36-.18-.8.46.28.46-.28.49-1.4-1.41-1.33-.2-.74.72-.8-.86-1.33.57-2.45-1.27-.84-.11-2.1-.89-1.47-.49.62.14,2.42-1,.77.09.84.86-.14.69.81-1,1.57.84.56-.78,1,.43,1-.26.46-1.67-.14-.12.59-.69.25L98,69l-.25-1.78-1-.25-.55.77-.52-.24-.2-.81.49.21,1.15-1.36L95.89,65l-.26-1-1.24-1.26.23-1.3.55-.1.23-1,.78-.42-.32,1.54.75,0,.29-.77.89,1.86,2.08-1,.37-1,.69-.17,0-1.08-2-.46,5.39-3.47-.09-1.64-1-1.23-1.07,0-1.81.87-.46-1.12.46-.49L100,51.2l-1.82-.46.9-.28.49-.77-1.27-2.38-1.47,0-.15.81L95.2,47l1.32,2.45L95,50.64l1.16.31.23.67L95,53l-.77-1.89-.84-.39-.87,1-1.41.11.09-1.16-.75-2.14-1.12-.73.46-1.41,1.81-.14-2.42-2.66.89-2.11.44.53.4-.19-.52-.83.23-.59,1.62-1L93,41.45l1.1-.25-.34-.56.4-.11,1.5.46.08,1.37,1.42-.07,1-1.79L97.41,40l.09-.35.41-.42.66.42,1.18-1.41.06,2.81-.87,1.79.32.21-.2.56-.84.25-.2,1,.58.42.06.91-.58.39,1.32.25,1-1.12-.08,1.78-.75.49.06.63.4.29.26-.5.69.67.81-.63.23,2.14.46-.11.83-2.31,1.16-.6L103.73,50l.52.18.72-1.48,1.09,1.69,0,.45-1.73,2,1.07,0,.11,2,2.45-.07-.66-1.08,0-.84.46-.67,1.85-.88,1.58-2.52L109,47.8l2.31-.74.72-1.3-1.87-.7-2.6-.1-1.78-3.48-1.33-.56-.89-1.54,0-.81-1-.14-.67-1.16-.72-.07.32-1.47-1.09-.53,1.78-.6-.2-1.22.64-.32.31-1.26-2,1,0-.46-1.09-.24-1.41.66L98,32.08l-1.29-.21.2-.85L96.41,30l-.63-.6-.87-.07v-.56l1.21-2.28.72,1.68.72.6,0,.84.69-1.26.81-.25L98.48,27l1.76-2.39-.31-.78-1.42.49L98,23.86l.81-1.44,3.43,0,.69-2.6.12-3.2L105,11.76l1.61.63.75-.21,1,1.09,1.76.21-.26-.74-1.15.21-.35-.8-2.05-1.27-.83-2.64.81-2-.32-.6,1.61-1.55L110,4.3l.35-.64,2.13.2h0l2.06.69h0l2,1.71.86,2.92.17,3.25,2.06,2.39,1.37,4.46H123l.42,1.86h0l4.77-.25,1.59-1.7,1.09-.38,1.22.26h0l1.06.47,2.27-.78h0l1.68-1.64,3.45-1.06h0l2.65-1.34.84-2.21-.16-1h0l-.28-.85h0l.16-.75,1.6-1h0l.64-.74-.16-3.4h0l.2-1.29.67-.89,2.49-1.08h0l1.67.39h0l1.19.24,1.72-2,3.32.66,3.24,2L161.5,4l2.77,5.23h0l1.14,1h0l2.16.62,1.12-.76h0l.16-1.12h0l.58-2.29,1.1-.7,1.08-2,.77-.35,2,.43,1.48,1.15.67,2.09L176.35,10h0l-1.26,1.51.09,1,.54.75,1.75,0h0l1.11,3.16-.46,4L181,22.59h0l2.3.59h0L185,23l1.56-1h0l1.06-1h0l1.43-.91,3.46,1.49h0l2.12-1.24,1.58,1.51h0l1.24.72,6.75,0h0l2.62-.77,3.51.4h0l1.23,0,.69-.49,3.24-4.16,1.92-1.08h0l2.19-.12h0l3.85,1.27,1.14,1h0l3.63,2,3.37,2.91h0l-.86.76,0,1.72,2.92,3.28,1,10.12,1.42,1.85,2.44,1.24,3.34,4,.21,3.18h0l1.2,1.15h0l.85,1.36,1.77.75L247.18,55h0l1.92,1.46h0l1.73,4.51,0,3.22.76.36v.95l-2,.31-1-.42L247,62.1l-.63,0-.7,1.26-1.93.6-.06-3.19-1.55-2.24.08,1.79.75.59.41,3.33-1.7,1.29-.26,1-.69-.21-.76,1-.77.07-.2.52.52,1.06-1.79,1.22L236,70.6l.23.53-1.27,1-1-1.33.49-.63-2.27.24L231.61,69l-1.16-1,.18-2.69-.78-.74.32,1.33-.46,2-1.27.21-.35-.32-.55.7,1.27.32,1.41,1.75-.54.87.66,1.12-.55.21-.55-1.12-.8.77-.67-.59-.63.7,1.21.14.38.45.08,1.51,1.53,1.5-.29.45.41.67.4.24.46-.45.75,1.12,1.56-.17-.09.83h-.89l-.06.6.26.77,1,.8,0-1.22h.92l1.61.87,1.33-1.43,1.47-.53,1-1.67-.61-.49.06-.84.66,1,.12-.42,1.64.11,1.73-.74-1,1,1.93.76-.14-.84,2.54-.9,1.46,1.47-.92.2.35,1-.78,2.55.72.21-.75.38.14,2.38-1-.07-.31,1.68-1.16,1.19.84,1.53-.37,1.29.57.42-.63.46.86.62-.2.67-.46.31-1.73-.31-.29,1.22-2.77,1-.72,0ZM169.72,36.12l-2.87-.29-1.12-5-2.13-2.57-2-1-2.68-.1-2.67,1.05L154,29.43l-2.2,2.29-1.63.1-2.29-.77-1.63-1.53-.66-2.39L143.24,27l-2.3,5.83-2.58-.09-1.91,2.29-1.24,5.26.48,4.49L143.62,46l2,2.48,2.1,4.21h4.11l3.73-2.2h4.2l1.63-1.15,3.44.67,3.73-2.58,1.53-2,.86-1.81.09-2.87,1-2V37.17Zm53.62,91.63-1.75-.67.08-.45-1.64-2-.06,1.25-.46.21-.29-.66-.49,1.11-1,0,.72-.91-1.84.18-.58-.87-1-.63-.34.21v2.12l.43.7-.89.52.17.31,1.18-.83.58.28.49-.32,1.09.67-.23.69-1.61-.66-.43.42,1.32,1.39,1-.56.23.56h.64l.23.9-.84,1,.06.53.49.24,2.62-1.32.35-.56,1.09.52.84-1-.26-.77Zm27.1-6.09-.61,0,0-.73-2.71-.94,1.53-.07v-.49l-.14-.7L246.66,117l.21-.63-.81-1.74-1.88,0-2.79,1.91-.75-.35-.81.21.43.8,1.21.39.75.76,1.39-.45-.81,1.29.2.42,1.44.35-.8.59.14.38.72.24,1.3-.45,0,.7,1.81.31-.23.52-.72.11.9.42,2.07.14.15-.56ZM244.7,72l-1.64.11-1-.91-1.93.73-.75,1.3,1,.8-.52.49,2,.11.52.52,1-2.1,1.73-.42ZM141.63,136.44l.67-.49,2.36.14-.78.87-.66,2,1.53.91-.35-.56.52-.7-.14-.83,1.18-1.6,1.12-.48,1.67.38.46-.59-.4-.49.55-1.08,2,.56.54.8.49-.45,1.22.34.08-.9h-.78l.26-.45-.43-1-.89.14.52-.67-.29-.69-1.21.9-1.56-1.11,2-.11.32-1.07-.64-.63-.6.31-.09-1.53-3.34,1.53-1.33-.17-2.45,2.82.38,1.49-.87.42-1,1.43ZM215.45,124l-.12-.63.9-.38,1.58.35.43-.77.15.77h.49l1.24-.91-1.53-2.16-3.17-.24-.26-.63.43-.24,1.33.42-.55-1.26-1.18-.21.06-.48,1.52-.11.49-.76-.51-1-1.68-.18-.49.32-2,2.85.61.59.92-.17.72.73-.46.59.72.07V121l-1.84,1.15.89.83.14.88Zm36,3.68-.66-.45.35-1.11-1.19.63.32,1L249,130.15l1.65-.28,0,.34-1.24.28-.41,1.18.29.6.95-.53.12.91.78,0-.32-.69.55-.18-.21-1.46,1-3.2Zm-84,13.77-.63.39-.87-.63-1.55.24-1.27,1.5.29,2.33.6-.42.29,1,.6.35.44-.66,2.56-1,.23-1,1.18-.24-.14-1-.66.07Zm-14.9,3.72,1.21-.55-.43-.87.37-.18.87,1.05-.29.55,1.18,0,.35-1.74-.61-.35v-.48l.72-.39.92.21.12-1.66-1.85,1-.78-1.6-1.58.46-.15-.73-.74.93-.61-.55.09-.45-1.13-.77-1.5,1.43.15,1.14-1.36.56-.49,0-1.26-1.59L144.2,142l-1.3-.45-1.09.31.49.52,2.5.55,1.33,1.53,1.58-1.53,2,.15.55.48.14,1,.46.11-.34.9.52,1,.92-.27Zm23.57-5.42.35-.62h-1l0-.53-1.09.14-.67.94-1.44.32-.26-.84.41-.17-.44-.56.35-.59-.61-.07-1.09-1.53-.23,1-1.27-.55-.52.55.69.7-.2.35-.4-.53-.38.25.46.38-.46.87-2.33-.35,2.33,1.36.78-.8,1.47.94.37.86-1.55.35.89.17.38.56.49,0,.4-1,1.35,0,.15.8-1.73,1.21.46,2,1-2.05.54.17.23-1.18,2.22-.55-1.87-.32.61-1,.63.48,1.44.15.2.66.84.27.52-.31-.72-.69ZM160.54,135l-1.07-.52-.92.45-.66-1.46-.72.66-.52-.76.14.9-.31.1-1.1-1.39-.06.59-.78.28-.4-.35.35-.62-1-.45-.34.69.83.7.21.8-.87,2.61.75.62,1.47-.66.35,1.77,1.06.11.9.66.23-.73.86.42.69-.56.44-1.29,1,.56,1-.17.23-.87-.95-1.29.32-1.32.81-1-.61-1.22Zm33.81,17.44-1.58.34,0,1.29-1,.1-.78,3.06.4-.32,1,0,.2-.45.41.52,1.44.42-.06-1-.83-.34,1.21-.32-.32-1.21Zm-2.42-28.12-.32-1.22-1.7-1.22-1.53,1-.43,0-.06-.52-1.73.24-1.73,1.39-1.49-.14-.61,1-.63,0,0-.76-.87.1-.46-1.56-.52.48-.34-.41-.18,1.77-.75.14-.46.8-.6-.66-.38.45,1.39,1.91-.73.56.29.49-.29.49,1,.1,0-.66.8-.14-.08,1.18.89.25.06.76,1.24.24.57,1.08.06-.9.58-.45,1.61.31-.17-.59.4-.24L187,130l2.25.07.92-.9.49-2.33Zm-19.74,2-1.07.59-1.21,0,.23.55,1,.18.37,3.51.9.87.66-.35-.29-1.39.52-.25.63.53-.26.9.41,2.16,1.12-1.85-.69-.55.89-.28,0-.76-1-2.79-1.07-.9.2.48-.63.35Z"/></g></g></svg>